<?xml version="1.0" encoding="utf-8"?>

<!DOCTYPE svg PUBLIC "-//W3C//DTD SVG 1.1//EN" "http://www.w3.org/Graphics/SVG/1.1/DTD/svg11.dtd">
<svg version="1.1" id="Layer_1" xmlns="http://www.w3.org/2000/svg" xmlns:xlink="http://www.w3.org/1999/xlink" x="0px" y="0px"
	 viewBox="0 0 1692.096 1692.096" enable-background="new 0 0 1692.096 1692.096" xml:space="preserve">
<g>
	<path id="path3272" stroke="#000000" stroke-width="1.3011" stroke-linecap="round" stroke-linejoin="round" d="M1323.717,108.511
		c-10.32-5.826-25.103-8.596-25.326-25.485c-0.24-18.16,21.436-12.86,17.202,2.389
		C1312.194,97.662,1317.203,101.524,1323.717,108.511L1323.717,108.511z"/>
	<path id="path3272_6_" stroke="#000000" stroke-width="1.3011" stroke-linecap="round" stroke-linejoin="round" d="
		M108.511,368.379c-5.826,10.32-8.596,25.103-25.485,25.326c-18.16,0.24-12.86-21.436,2.389-17.202
		C97.662,379.903,101.524,374.893,108.511,368.379L108.511,368.379z"/>
	<path id="path3272_4_" stroke="#000000" stroke-width="1.3011" stroke-linecap="round" stroke-linejoin="round" d="
		M368.379,1583.585c10.32,5.826,25.103,8.596,25.326,25.485c0.24,18.16-21.436,12.86-17.202-2.389
		C379.903,1594.434,374.893,1590.572,368.379,1583.585L368.379,1583.585z"/>
	<path id="path3272_2_" stroke="#000000" stroke-width="1.3011" stroke-linecap="round" stroke-linejoin="round" d="
		M1583.585,1323.717c5.826-10.32,8.596-25.103,25.485-25.326c18.16-0.24,12.86,21.436-2.389,17.202
		C1594.434,1312.194,1590.572,1317.203,1583.585,1323.717L1583.585,1323.717z"/>
	<path id="path3272_1_" stroke="#000000" stroke-width="1.3011" stroke-linecap="round" stroke-linejoin="round" d="
		M1583.585,368.379c5.826,10.32,8.596,25.103,25.485,25.326c18.16,0.24,12.86-21.436-2.389-17.202
		C1594.434,379.903,1590.572,374.893,1583.585,368.379L1583.585,368.379z"/>
	<path id="path3272_7_" stroke="#000000" stroke-width="1.3011" stroke-linecap="round" stroke-linejoin="round" d="
		M368.379,108.511c10.32-5.826,25.103-8.596,25.326-25.485c0.24-18.16-21.436-12.86-17.202,2.389
		C379.903,97.662,374.893,101.524,368.379,108.511L368.379,108.511z"/>
	<path id="path3272_5_" stroke="#000000" stroke-width="1.3011" stroke-linecap="round" stroke-linejoin="round" d="
		M108.511,1323.717c-5.826-10.32-8.596-25.103-25.485-25.326c-18.16-0.24-12.86,21.436,2.389,17.202
		C97.662,1312.194,101.524,1317.203,108.511,1323.717L108.511,1323.717z"/>
	<path id="path3272_3_" stroke="#000000" stroke-width="1.3011" stroke-linecap="round" stroke-linejoin="round" d="
		M1323.717,1583.585c-10.32,5.826-25.103,8.596-25.326,25.485c-0.24,18.16,21.436,12.86,17.202-2.389
		C1312.194,1594.434,1317.203,1590.572,1323.717,1583.585L1323.717,1583.585z"/>
	<path id="path4042" stroke="#000000" stroke-width="1.3011" stroke-linecap="round" stroke-linejoin="round" d="M1294.405,89.073
		c-12.011-6.778-29.216-10-29.476-29.649c-0.28-21.127,24.949-14.961,20.022,2.779C1280.993,76.451,1286.823,80.944,1294.405,89.073
		L1294.405,89.073z"/>
	<path id="path4042_6_" stroke="#000000" stroke-width="1.3011" stroke-linecap="round" stroke-linejoin="round" d="M89.073,397.692
		c-6.778,12.011-10,29.216-29.649,29.476c-21.127,0.28-14.961-24.949,2.779-20.022C76.451,411.103,80.944,405.273,89.073,397.692
		L89.073,397.692z"/>
	<path id="path4042_4_" stroke="#000000" stroke-width="1.3011" stroke-linecap="round" stroke-linejoin="round" d="
		M397.692,1603.023c12.011,6.778,29.216,10,29.476,29.649c0.28,21.127-24.949,14.961-20.022-2.779
		C411.103,1615.645,405.273,1611.152,397.692,1603.023L397.692,1603.023z"/>
	<path id="path4042_2_" stroke="#000000" stroke-width="1.3011" stroke-linecap="round" stroke-linejoin="round" d="
		M1603.023,1294.405c6.778-12.011,10-29.216,29.649-29.476c21.127-0.28,14.961,24.949-2.779,20.022
		C1615.645,1280.993,1611.152,1286.823,1603.023,1294.405L1603.023,1294.405z"/>
	<path id="path4042_1_" stroke="#000000" stroke-width="1.3011" stroke-linecap="round" stroke-linejoin="round" d="
		M1603.023,397.692c6.778,12.011,10,29.216,29.649,29.476c21.127,0.28,14.961-24.949-2.779-20.022
		C1615.645,411.103,1611.152,405.273,1603.023,397.692L1603.023,397.692z"/>
	<path id="path4042_7_" stroke="#000000" stroke-width="1.3011" stroke-linecap="round" stroke-linejoin="round" d="M397.692,89.073
		c12.011-6.778,29.216-10,29.476-29.649c0.28-21.127-24.949-14.961-20.022,2.779C411.103,76.451,405.273,80.944,397.692,89.073
		L397.692,89.073z"/>
	<path id="path4042_5_" stroke="#000000" stroke-width="1.3011" stroke-linecap="round" stroke-linejoin="round" d="
		M89.073,1294.405c-6.778-12.011-10-29.216-29.649-29.476c-21.127-0.28-14.961,24.949,2.779,20.022
		C76.451,1280.993,80.944,1286.823,89.073,1294.405L89.073,1294.405z"/>
	<path id="path4042_3_" stroke="#000000" stroke-width="1.3011" stroke-linecap="round" stroke-linejoin="round" d="
		M1294.405,1603.023c-12.011,6.778-29.216,10-29.476,29.649c-0.28,21.127,24.949,14.961,20.022-2.779
		C1280.993,1615.645,1286.823,1611.152,1294.405,1603.023L1294.405,1603.023z"/>
	<path id="path4046" fill="none" stroke="#000000" stroke-width="1.3011" stroke-linecap="round" stroke-linejoin="round" d="
		M1394.684,278.685c2.527-10.678,12.216-29.307-41.741-96.819c-12.333-14.404-23.888-45.655-8.183-67.998
		c11.918-16.954,37.657-26.125,54.453-15.336c12.627,8.11,16.431,27.931,5.362,39.633c-6.323,6.684-14.379,7.624-21.161,6.401
		c-14.93-2.695-15.735-31.199-0.552-32.045c18.33-1.022,13.7,16.759,11.895,18.45"/>
	<path id="path4046_6_" fill="none" stroke="#000000" stroke-width="1.3011" stroke-linecap="round" stroke-linejoin="round" d="
		M278.685,297.412c-10.678-2.527-29.307-12.216-96.819,41.741c-14.404,12.333-45.655,23.888-67.998,8.183
		c-16.954-11.918-26.125-37.657-15.336-54.453c8.11-12.627,27.931-16.431,39.633-5.362c6.684,6.323,7.624,14.379,6.401,21.161
		c-2.695,14.93-31.199,15.735-32.045,0.552c-1.022-18.33,16.759-13.7,18.45-11.895"/>
	<path id="path4046_4_" fill="none" stroke="#000000" stroke-width="1.3011" stroke-linecap="round" stroke-linejoin="round" d="
		M297.412,1413.411c-2.527,10.678-12.216,29.307,41.741,96.819c12.333,14.404,23.888,45.655,8.183,67.998
		c-11.918,16.954-37.657,26.125-54.453,15.336c-12.627-8.11-16.431-27.931-5.362-39.633c6.323-6.684,14.379-7.624,21.161-6.401
		c14.93,2.695,15.735,31.198,0.552,32.045c-18.33,1.022-13.7-16.759-11.895-18.45"/>
	<path id="path4046_2_" fill="none" stroke="#000000" stroke-width="1.3011" stroke-linecap="round" stroke-linejoin="round" d="
		M1413.411,1394.684c10.678,2.527,29.307,12.216,96.819-41.741c14.404-12.333,45.655-23.888,67.998-8.183
		c16.954,11.918,26.125,37.657,15.336,54.453c-8.11,12.627-27.931,16.431-39.633,5.362c-6.684-6.323-7.624-14.379-6.401-21.161
		c2.695-14.93,31.198-15.735,32.045-0.552c1.022,18.33-16.759,13.7-18.45,11.895"/>
	<path id="path4046_1_" fill="none" stroke="#000000" stroke-width="1.3011" stroke-linecap="round" stroke-linejoin="round" d="
		M1413.411,297.412c10.678-2.527,29.307-12.216,96.819,41.741c14.404,12.333,45.655,23.888,67.998,8.183
		c16.954-11.918,26.125-37.657,15.336-54.453c-8.11-12.627-27.931-16.431-39.633-5.362c-6.684,6.323-7.624,14.379-6.401,21.161
		c2.695,14.93,31.198,15.735,32.045,0.552c1.022-18.33-16.759-13.7-18.45-11.895"/>
	<path id="path4046_7_" fill="none" stroke="#000000" stroke-width="1.3011" stroke-linecap="round" stroke-linejoin="round" d="
		M297.412,278.685c-2.527-10.678-12.216-29.307,41.741-96.819c12.333-14.404,23.888-45.655,8.183-67.998
		c-11.918-16.954-37.657-26.125-54.453-15.336c-12.627,8.11-16.431,27.931-5.362,39.633c6.323,6.684,14.379,7.624,21.161,6.401
		c14.93-2.695,15.735-31.199,0.552-32.045c-18.33-1.022-13.7,16.759-11.895,18.45"/>
	<path id="path4046_5_" fill="none" stroke="#000000" stroke-width="1.3011" stroke-linecap="round" stroke-linejoin="round" d="
		M278.685,1394.684c-10.678,2.527-29.307,12.216-96.819-41.741c-14.404-12.333-45.655-23.888-67.998-8.183
		c-16.954,11.918-26.125,37.657-15.336,54.453c8.11,12.627,27.931,16.431,39.633,5.362c6.684-6.323,7.624-14.379,6.401-21.161
		c-2.695-14.93-31.199-15.735-32.045-0.552c-1.022,18.33,16.759,13.7,18.45,11.895"/>
	<path id="path4046_3_" fill="none" stroke="#000000" stroke-width="1.3011" stroke-linecap="round" stroke-linejoin="round" d="
		M1394.684,1413.411c2.527,10.678,12.216,29.307-41.741,96.819c-12.333,14.404-23.888,45.655-8.183,67.998
		c11.918,16.954,37.657,26.125,54.453,15.336c12.627-8.11,16.431-27.931,5.362-39.633c-6.323-6.684-14.379-7.624-21.161-6.401
		c-14.93,2.695-15.735,31.198-0.552,32.045c18.33,1.022,13.7-16.759,11.895-18.45"/>
	<path id="path4051" fill="none" stroke="#000000" stroke-width="1.3011" stroke-linecap="round" stroke-linejoin="round" d="
		M1318.957,157.923c-25.933,0.072-46.241,7.629-63.021,13.291c-7.253,2.471-62.123,9.177-83.552-19.508
		c-17.761-23.786-23.217-52.443,0.368-71.902c15.157-12.506,41.492-8.597,51.309,10.11c5.607,10.685,3.375,21.094-0.998,29.003
		c-9.624,17.412-45.239,6.35-39.887-12.875c6.461-23.209,26.514-9.932,27.846-6.973"/>
	<path id="path4051_6_" fill="none" stroke="#000000" stroke-width="1.3011" stroke-linecap="round" stroke-linejoin="round" d="
		M157.923,373.139c0.072,25.933,7.629,46.241,13.291,63.021c2.471,7.253,9.177,62.123-19.508,83.552
		c-23.786,17.761-52.443,23.217-71.902-0.368c-12.506-15.157-8.597-41.492,10.11-51.309c10.685-5.607,21.094-3.375,29.003,0.998
		c17.412,9.624,6.35,45.239-12.875,39.887c-23.209-6.461-9.932-26.514-6.973-27.846"/>
	<path id="path4051_4_" fill="none" stroke="#000000" stroke-width="1.3011" stroke-linecap="round" stroke-linejoin="round" d="
		M373.139,1534.174c25.933-0.072,46.241-7.629,63.021-13.291c7.253-2.471,62.123-9.177,83.552,19.508
		c17.761,23.786,23.217,52.443-0.368,71.901c-15.157,12.506-41.492,8.597-51.309-10.11c-5.607-10.685-3.375-21.094,0.998-29.003
		c9.624-17.412,45.239-6.35,39.887,12.875c-6.461,23.209-26.514,9.932-27.846,6.973"/>
	<path id="path4051_2_" fill="none" stroke="#000000" stroke-width="1.3011" stroke-linecap="round" stroke-linejoin="round" d="
		M1534.174,1318.957c-0.072-25.933-7.629-46.241-13.291-63.021c-2.471-7.253-9.177-62.123,19.508-83.552
		c23.786-17.761,52.443-23.217,71.901,0.368c12.506,15.157,8.597,41.492-10.11,51.309c-10.685,5.607-21.094,3.375-29.003-0.998
		c-17.412-9.624-6.35-45.239,12.875-39.887c23.209,6.461,9.932,26.514,6.973,27.846"/>
	<path id="path4051_1_" fill="none" stroke="#000000" stroke-width="1.3011" stroke-linecap="round" stroke-linejoin="round" d="
		M1534.174,373.139c-0.072,25.933-7.629,46.241-13.291,63.021c-2.471,7.253-9.177,62.123,19.508,83.552
		c23.786,17.761,52.443,23.217,71.901-0.368c12.506-15.157,8.597-41.492-10.11-51.309c-10.685-5.607-21.094-3.375-29.003,0.998
		c-17.412,9.624-6.35,45.239,12.875,39.887c23.209-6.461,9.932-26.514,6.973-27.846"/>
	<path id="path4051_7_" fill="none" stroke="#000000" stroke-width="1.3011" stroke-linecap="round" stroke-linejoin="round" d="
		M373.139,157.923c25.933,0.072,46.241,7.629,63.021,13.291c7.253,2.471,62.123,9.177,83.552-19.508
		c17.761-23.786,23.217-52.443-0.368-71.902c-15.157-12.506-41.492-8.597-51.309,10.11c-5.607,10.685-3.375,21.094,0.998,29.003
		c9.624,17.412,45.239,6.35,39.887-12.875c-6.461-23.209-26.514-9.932-27.846-6.973"/>
	<path id="path4051_5_" fill="none" stroke="#000000" stroke-width="1.3011" stroke-linecap="round" stroke-linejoin="round" d="
		M157.923,1318.957c0.072-25.933,7.629-46.241,13.291-63.021c2.471-7.253,9.177-62.123-19.508-83.552
		c-23.786-17.761-52.443-23.217-71.902,0.368c-12.506,15.157-8.597,41.492,10.11,51.309c10.685,5.607,21.094,3.375,29.003-0.998
		c17.412-9.624,6.35-45.239-12.875-39.887c-23.209,6.461-9.932,26.514-6.973,27.846"/>
	<path id="path4051_3_" fill="none" stroke="#000000" stroke-width="1.3011" stroke-linecap="round" stroke-linejoin="round" d="
		M1318.957,1534.174c-25.933-0.072-46.241-7.629-63.021-13.291c-7.253-2.471-62.123-9.177-83.552,19.508
		c-17.761,23.786-23.217,52.443,0.368,71.901c15.157,12.506,41.492,8.597,51.309-10.11c5.607-10.685,3.375-21.094-0.998-29.003
		c-9.624-17.412-45.239-6.35-39.887,12.875c6.461,23.209,26.514,9.932,27.846,6.973"/>
	<path id="path4053" fill="none" stroke="#000000" stroke-width="1.3011" stroke-linecap="round" stroke-linejoin="round" d="
		M1335.688,159.675c-7.444-0.664-14.445-0.843-21.148,0.718c-15.617,5.083-24.929,9.562-33.524,20.213
		c-13.577,16.823-8.693,45.492,9.858,54.939c13.945,7.102,33.752,0.075,38.422-16.075c2.667-9.225-0.739-16.982-5.415-22.45
		c-10.295-12.036-36.317,2.275-29.068,16.406c8.752,17.061,22.277,3.508,22.844,0.988"/>
	<path id="path4053_6_" fill="none" stroke="#000000" stroke-width="1.3011" stroke-linecap="round" stroke-linejoin="round" d="
		M159.675,356.409c-0.664,7.444-0.843,14.445,0.718,21.148c5.083,15.617,9.562,24.929,20.213,33.524
		c16.823,13.577,45.492,8.693,54.939-9.858c7.102-13.945,0.075-33.752-16.075-38.422c-9.225-2.667-16.982,0.739-22.45,5.415
		c-12.036,10.295,2.275,36.317,16.406,29.068c17.061-8.752,3.508-22.277,0.988-22.844"/>
	<path id="path4053_4_" fill="none" stroke="#000000" stroke-width="1.3011" stroke-linecap="round" stroke-linejoin="round" d="
		M356.409,1532.421c7.444,0.664,14.445,0.843,21.148-0.718c15.617-5.083,24.929-9.562,33.524-20.213
		c13.577-16.823,8.693-45.492-9.858-54.939c-13.945-7.102-33.752-0.075-38.422,16.075c-2.667,9.225,0.739,16.982,5.415,22.45
		c10.295,12.036,36.317-2.275,29.068-16.406c-8.752-17.06-22.277-3.508-22.844-0.988"/>
	<path id="path4053_2_" fill="none" stroke="#000000" stroke-width="1.3011" stroke-linecap="round" stroke-linejoin="round" d="
		M1532.421,1335.688c0.664-7.444,0.843-14.445-0.718-21.148c-5.083-15.617-9.562-24.929-20.213-33.524
		c-16.823-13.577-45.492-8.693-54.939,9.858c-7.102,13.945-0.075,33.752,16.075,38.422c9.225,2.667,16.982-0.739,22.45-5.415
		c12.036-10.295-2.275-36.317-16.406-29.068c-17.06,8.752-3.508,22.277-0.988,22.844"/>
	<path id="path4053_1_" fill="none" stroke="#000000" stroke-width="1.3011" stroke-linecap="round" stroke-linejoin="round" d="
		M1532.421,356.409c0.664,7.444,0.843,14.445-0.718,21.148c-5.083,15.617-9.562,24.929-20.213,33.524
		c-16.823,13.577-45.492,8.693-54.939-9.858c-7.102-13.945-0.075-33.752,16.075-38.422c9.225-2.667,16.982,0.739,22.45,5.415
		c12.036,10.295-2.275,36.317-16.406,29.068c-17.06-8.752-3.508-22.277-0.988-22.844"/>
	<path id="path4053_7_" fill="none" stroke="#000000" stroke-width="1.3011" stroke-linecap="round" stroke-linejoin="round" d="
		M356.409,159.675c7.444-0.664,14.445-0.843,21.148,0.718c15.617,5.083,24.929,9.562,33.524,20.213
		c13.577,16.823,8.693,45.492-9.858,54.939c-13.945,7.102-33.752,0.075-38.422-16.075c-2.667-9.225,0.739-16.982,5.415-22.45
		c10.295-12.036,36.317,2.275,29.068,16.406c-8.752,17.061-22.277,3.508-22.844,0.988"/>
	<path id="path4053_5_" fill="none" stroke="#000000" stroke-width="1.3011" stroke-linecap="round" stroke-linejoin="round" d="
		M159.675,1335.688c-0.664-7.444-0.843-14.445,0.718-21.148c5.083-15.617,9.562-24.929,20.213-33.524
		c16.823-13.577,45.492-8.693,54.939,9.858c7.102,13.945,0.075,33.752-16.075,38.422c-9.225,2.667-16.982-0.739-22.45-5.415
		c-12.036-10.295,2.275-36.317,16.406-29.068c17.061,8.752,3.508,22.277,0.988,22.844"/>
	<path id="path4053_3_" fill="none" stroke="#000000" stroke-width="1.3011" stroke-linecap="round" stroke-linejoin="round" d="
		M1335.688,1532.421c-7.444,0.664-14.445,0.843-21.148-0.718c-15.617-5.083-24.929-9.562-33.524-20.213
		c-13.577-16.823-8.693-45.492,9.858-54.939c13.945-7.102,33.752-0.075,38.422,16.075c2.667,9.225-0.739,16.982-5.415,22.45
		c-10.295,12.036-36.317-2.275-29.068-16.406c8.752-17.06,22.277-3.508,22.844-0.988"/>
	<path fill="none" stroke="#000000" stroke-width="1.3011" stroke-linecap="round" stroke-linejoin="round" d="M1548.431,782.497
		c1.191-1.477,2.844-15.505-10.931-12.806c-11.41,2.236-7.83,23.861,3.758,24.348c5.264,0.221,11.267-1.339,15.359-7.093
		c7.164-10.073,2.217-24.77-8.191-29.626c-13.845-6.457-34.154,1.957-38.049,17.386c-4.15,16.433,18.529,41.186,27.62,52.525
		c5.407,6.745,9.165,13.036,11.562,18.816c-2.397,5.779-6.155,12.071-11.562,18.816c-9.091,11.339-31.77,36.091-27.62,52.525
		c3.895,15.429,24.204,23.844,38.049,17.386c10.408-4.855,15.355-19.553,8.191-29.626c-4.092-5.754-10.096-7.314-15.359-7.093
		c-11.588,0.487-15.168,22.112-3.758,24.348c13.776,2.699,12.122-11.328,10.931-12.806"/>
	<path fill="none" stroke="#000000" stroke-width="1.3011" stroke-linecap="round" stroke-linejoin="round" d="M909.599,1548.431
		c1.477,1.191,15.505,2.844,12.806-10.931c-2.236-11.41-23.861-7.83-24.348,3.758c-0.221,5.264,1.339,11.267,7.093,15.359
		c10.073,7.164,24.77,2.217,29.626-8.191c6.457-13.845-1.957-34.154-17.386-38.049c-16.433-4.15-41.186,18.529-52.525,27.62
		c-6.745,5.407-13.036,9.165-18.816,11.562c-5.779-2.397-12.071-6.155-18.816-11.562c-11.339-9.091-36.091-31.77-52.525-27.62
		c-15.429,3.895-23.844,24.204-17.386,38.049c4.856,10.408,19.553,15.355,29.626,8.191c5.754-4.092,7.314-10.096,7.093-15.359
		c-0.487-11.588-22.112-15.168-24.348-3.758c-2.699,13.776,11.328,12.122,12.806,10.931"/>
	<path fill="none" stroke="#000000" stroke-width="1.3011" stroke-linecap="round" stroke-linejoin="round" d="M143.665,909.599
		c-1.191,1.477-2.844,15.505,10.931,12.806c11.41-2.236,7.83-23.861-3.758-24.348c-5.264-0.221-11.267,1.339-15.359,7.093
		c-7.164,10.073-2.217,24.77,8.191,29.626c13.845,6.457,34.153-1.957,38.049-17.386c4.15-16.433-18.529-41.186-27.62-52.525
		c-5.407-6.745-9.165-13.036-11.562-18.816c2.397-5.779,6.155-12.071,11.562-18.816c9.091-11.339,31.77-36.091,27.62-52.525
		c-3.895-15.429-24.204-23.844-38.049-17.386c-10.408,4.856-15.355,19.553-8.191,29.626c4.092,5.754,10.096,7.314,15.359,7.093
		c11.588-0.487,15.168-22.112,3.758-24.348c-13.776-2.699-12.122,11.328-10.931,12.806"/>
	<path fill="none" stroke="#000000" stroke-width="1.3011" stroke-linecap="round" stroke-linejoin="round" d="M782.497,143.665
		c-1.477-1.191-15.505-2.844-12.806,10.931c2.236,11.41,23.861,7.83,24.348-3.758c0.221-5.264-1.339-11.267-7.093-15.359
		c-10.073-7.164-24.77-2.217-29.626,8.191c-6.457,13.845,1.957,34.153,17.386,38.049c16.433,4.15,41.186-18.529,52.525-27.62
		c6.745-5.407,13.036-9.165,18.816-11.562c5.779,2.397,12.071,6.155,18.816,11.562c11.339,9.091,36.091,31.77,52.525,27.62
		c15.429-3.895,23.844-24.204,17.386-38.049c-4.855-10.408-19.553-15.355-29.626-8.191c-5.754,4.092-7.314,10.096-7.093,15.359
		c0.487,11.588,22.112,15.168,24.348,3.758c2.699-13.776-11.328-12.122-12.806-10.931"/>
	<path fill="none" stroke="#000000" stroke-width="1.3011" stroke-linecap="round" stroke-linejoin="round" d="M1489.991,900.136
		c-1.959-20.102-1.697-38.784,0.805-54.088c-2.502-15.303-2.764-33.986-0.805-54.088"/>
	<path fill="none" stroke="#000000" stroke-width="1.3011" stroke-linecap="round" stroke-linejoin="round" d="M791.96,1489.991
		c20.102-1.959,38.784-1.697,54.088,0.805c15.303-2.502,33.986-2.764,54.088-0.805"/>
	<path fill="none" stroke="#000000" stroke-width="1.3011" stroke-linecap="round" stroke-linejoin="round" d="M202.105,791.96
		c1.959,20.102,1.697,38.784-0.805,54.088c2.502,15.303,2.764,33.986,0.805,54.088"/>
	<path id="path4059" fill="none" stroke="#000000" stroke-width="1.3011" stroke-linecap="round" stroke-linejoin="round" d="
		M900.136,202.105c-20.102,1.959-38.784,1.697-54.088-0.805c-15.303,2.502-33.986,2.764-54.088,0.805"/>
	<path id="path4063" fill="none" stroke="#000000" stroke-width="1.3011" stroke-linecap="round" stroke-linejoin="round" d="
		M1396.091,276.83c-3.361,7.076-34.246,36.902-56.958,32.994c-12.025-2.07-18.711-18.254-14.479-27.81
		c3.172-7.164,15.088-11.565,22.733-5.976c4.367,3.193,5.509,7.808,5.295,11.838c-0.471,8.872-17.046,11.396-18.659,2.632
		c-1.948-10.58,8.77-9.172,9.89-8.245"/>
	<path id="path4063_6_" fill="none" stroke="#000000" stroke-width="1.3011" stroke-linecap="round" stroke-linejoin="round" d="
		M276.83,296.005c7.076,3.361,36.902,34.246,32.994,56.958c-2.07,12.025-18.254,18.711-27.81,14.479
		c-7.164-3.172-11.565-15.088-5.976-22.733c3.193-4.367,7.808-5.509,11.838-5.295c8.872,0.471,11.396,17.046,2.632,18.659
		c-10.58,1.948-9.172-8.77-8.245-9.89"/>
	<path id="path4063_4_" fill="none" stroke="#000000" stroke-width="1.3011" stroke-linecap="round" stroke-linejoin="round" d="
		M296.005,1415.266c3.361-7.076,34.246-36.902,56.958-32.994c12.025,2.07,18.711,18.254,14.479,27.81
		c-3.172,7.164-15.088,11.565-22.733,5.976c-4.367-3.193-5.509-7.808-5.295-11.838c0.471-8.872,17.046-11.396,18.659-2.632
		c1.948,10.58-8.77,9.172-9.89,8.245"/>
	<path id="path4063_2_" fill="none" stroke="#000000" stroke-width="1.3011" stroke-linecap="round" stroke-linejoin="round" d="
		M1415.266,1396.091c-7.076-3.361-36.902-34.246-32.994-56.958c2.07-12.025,18.254-18.711,27.81-14.479
		c7.164,3.172,11.565,15.088,5.976,22.733c-3.193,4.367-7.808,5.509-11.838,5.295c-8.872-0.471-11.396-17.046-2.632-18.659
		c10.58-1.948,9.172,8.77,8.245,9.89"/>
	<path id="path4063_1_" fill="none" stroke="#000000" stroke-width="1.3011" stroke-linecap="round" stroke-linejoin="round" d="
		M1415.266,296.005c-7.076,3.361-36.902,34.246-32.994,56.958c2.07,12.025,18.254,18.711,27.81,14.479
		c7.164-3.172,11.565-15.088,5.976-22.733c-3.193-4.367-7.808-5.509-11.838-5.295c-8.872,0.471-11.396,17.046-2.632,18.659
		c10.58,1.948,9.172-8.77,8.245-9.89"/>
	<path id="path4063_7_" fill="none" stroke="#000000" stroke-width="1.3011" stroke-linecap="round" stroke-linejoin="round" d="
		M296.005,276.83c3.361,7.076,34.246,36.902,56.958,32.994c12.025-2.07,18.711-18.254,14.479-27.81
		c-3.172-7.164-15.088-11.565-22.733-5.976c-4.367,3.193-5.509,7.808-5.295,11.838c0.471,8.872,17.046,11.396,18.659,2.632
		c1.948-10.58-8.77-9.172-9.89-8.245"/>
	<path id="path4063_5_" fill="none" stroke="#000000" stroke-width="1.3011" stroke-linecap="round" stroke-linejoin="round" d="
		M276.83,1396.091c7.076-3.361,36.902-34.246,32.994-56.958c-2.07-12.025-18.254-18.711-27.81-14.479
		c-7.164,3.172-11.565,15.088-5.976,22.733c3.193,4.367,7.808,5.509,11.838,5.295c8.872-0.471,11.396-17.046,2.632-18.659
		c-10.58-1.948-9.172,8.77-8.245,9.89"/>
	<path id="path4063_3_" fill="none" stroke="#000000" stroke-width="1.3011" stroke-linecap="round" stroke-linejoin="round" d="
		M1396.091,1415.266c-3.361-7.076-34.246-36.902-56.958-32.994c-12.025,2.07-18.711,18.254-14.479,27.81
		c3.172,7.164,15.088,11.565,22.733,5.976c4.367-3.193,5.509-7.808,5.295-11.838c-0.471-8.872-17.046-11.396-18.659-2.632
		c-1.948,10.58,8.77,9.172,9.89,8.245"/>
	<path id="path4067" stroke="#000000" stroke-width="1.3011" stroke-linecap="round" stroke-linejoin="round" d="M1426.098,223.992
		c-2.304-11.625-9.835-24.644,2.832-35.817c13.62-12.016,23.722,7.882,9.396,14.607
		C1426.821,208.182,1427.155,214.498,1426.098,223.992L1426.098,223.992z"/>
	<path id="path4067_6_" stroke="#000000" stroke-width="1.3011" stroke-linecap="round" stroke-linejoin="round" d="
		M223.992,265.998c-11.625,2.304-24.644,9.835-35.817-2.832c-12.016-13.62,7.882-23.722,14.607-9.396
		C208.182,265.276,214.498,264.941,223.992,265.998L223.992,265.998z"/>
	<path id="path4067_4_" stroke="#000000" stroke-width="1.3011" stroke-linecap="round" stroke-linejoin="round" d="
		M265.998,1468.104c2.304,11.625,9.835,24.644-2.832,35.817c-13.62,12.016-23.722-7.882-9.396-14.607
		C265.276,1483.914,264.941,1477.598,265.998,1468.104L265.998,1468.104z"/>
	<path id="path4067_2_" stroke="#000000" stroke-width="1.3011" stroke-linecap="round" stroke-linejoin="round" d="
		M1468.104,1426.098c11.625-2.304,24.644-9.835,35.817,2.832c12.016,13.62-7.882,23.722-14.607,9.396
		C1483.914,1426.821,1477.598,1427.155,1468.104,1426.098L1468.104,1426.098z"/>
	<path id="path4067_1_" stroke="#000000" stroke-width="1.3011" stroke-linecap="round" stroke-linejoin="round" d="
		M1468.104,265.998c11.625,2.304,24.644,9.835,35.817-2.832c12.016-13.62-7.882-23.722-14.607-9.396
		C1483.914,265.276,1477.598,264.941,1468.104,265.998L1468.104,265.998z"/>
	<path id="path4067_7_" stroke="#000000" stroke-width="1.3011" stroke-linecap="round" stroke-linejoin="round" d="
		M265.998,223.992c2.304-11.625,9.835-24.644-2.832-35.817c-13.62-12.016-23.722,7.882-9.396,14.607
		C265.276,208.182,264.941,214.498,265.998,223.992L265.998,223.992z"/>
	<path id="path4067_5_" stroke="#000000" stroke-width="1.3011" stroke-linecap="round" stroke-linejoin="round" d="
		M223.992,1426.098c-11.625-2.304-24.644-9.835-35.817,2.832c-12.016,13.62,7.882,23.722,14.607,9.396
		C208.182,1426.821,214.498,1427.155,223.992,1426.098L223.992,1426.098z"/>
	<path id="path4067_3_" stroke="#000000" stroke-width="1.3011" stroke-linecap="round" stroke-linejoin="round" d="
		M1426.098,1468.104c-2.304,11.625-9.835,24.644,2.832,35.817c13.62,12.016,23.722-7.882,9.396-14.607
		C1426.821,1483.914,1427.155,1477.598,1426.098,1468.104L1426.098,1468.104z"/>
	<path id="path4069" stroke="#000000" stroke-width="1.3011" stroke-linecap="round" stroke-linejoin="round" d="M1421.745,189.091
		c-2.684-13.53-11.45-28.68,3.286-41.679c15.845-13.978,27.605,9.178,10.937,17C1422.581,170.693,1422.971,178.043,1421.745,189.091
		L1421.745,189.091z"/>
	<path id="path4069_6_" stroke="#000000" stroke-width="1.3011" stroke-linecap="round" stroke-linejoin="round" d="
		M189.091,270.352c-13.53,2.684-28.68,11.45-41.679-3.286c-13.978-15.845,9.178-27.605,17-10.937
		C170.693,269.516,178.043,269.125,189.091,270.352L189.091,270.352z"/>
	<path id="path4069_4_" stroke="#000000" stroke-width="1.3011" stroke-linecap="round" stroke-linejoin="round" d="
		M270.352,1503.005c2.684,13.53,11.45,28.68-3.286,41.679c-15.845,13.978-27.605-9.178-10.937-17
		C269.516,1521.403,269.125,1514.053,270.352,1503.005L270.352,1503.005z"/>
	<path id="path4069_2_" stroke="#000000" stroke-width="1.3011" stroke-linecap="round" stroke-linejoin="round" d="
		M1503.005,1421.745c13.53-2.684,28.68-11.45,41.679,3.286c13.978,15.845-9.178,27.605-17,10.937
		C1521.403,1422.581,1514.053,1422.971,1503.005,1421.745L1503.005,1421.745z"/>
	<path id="path4069_1_" stroke="#000000" stroke-width="1.3011" stroke-linecap="round" stroke-linejoin="round" d="
		M1503.005,270.352c13.53,2.684,28.68,11.45,41.679-3.286c13.978-15.845-9.178-27.605-17-10.937
		C1521.403,269.516,1514.053,269.125,1503.005,270.352L1503.005,270.352z"/>
	<path id="path4069_7_" stroke="#000000" stroke-width="1.3011" stroke-linecap="round" stroke-linejoin="round" d="
		M270.352,189.091c2.684-13.53,11.45-28.68-3.286-41.679c-15.845-13.978-27.605,9.178-10.937,17
		C269.516,170.693,269.125,178.043,270.352,189.091L270.352,189.091z"/>
	<path id="path4069_5_" stroke="#000000" stroke-width="1.3011" stroke-linecap="round" stroke-linejoin="round" d="
		M189.091,1421.745c-13.53-2.684-28.68-11.45-41.679,3.286c-13.978,15.845,9.178,27.605,17,10.937
		C170.693,1422.581,178.043,1422.971,189.091,1421.745L189.091,1421.745z"/>
	<path id="path4069_3_" stroke="#000000" stroke-width="1.3011" stroke-linecap="round" stroke-linejoin="round" d="
		M1421.745,1503.005c-2.684,13.53-11.45,28.68,3.286,41.679c15.845,13.978,27.605-9.178,10.937-17
		C1422.581,1521.403,1422.971,1514.053,1421.745,1503.005L1421.745,1503.005z"/>
	<path id="path4085" stroke="#000000" stroke-width="1.3011" stroke-linejoin="round" d="M1366.485,325.611
		c-3.633-1.646-7.685-3.14-12.186-4.468l-0.001,0.011c4.534,1.246,8.657,2.667,12.392,4.252c1.585,3.735,3.007,7.858,4.252,12.392
		l0.011-0.001C1369.625,333.296,1368.131,329.244,1366.485,325.611z"/>
	<path stroke="#000000" stroke-width="1.3011" stroke-linejoin="round" d="M1366.485,1366.485c1.646-3.633,3.14-7.685,4.468-12.186
		l-0.011-0.001c-1.245,4.534-2.667,8.657-4.252,12.392c-3.735,1.585-7.858,3.007-12.392,4.252l0.001,0.011
		C1358.8,1369.625,1362.853,1368.131,1366.485,1366.485z"/>
	<path stroke="#000000" stroke-width="1.3011" stroke-linejoin="round" d="M325.611,1366.485c3.633,1.646,7.685,3.14,12.186,4.468
		l0.001-0.011c-4.534-1.245-8.657-2.667-12.392-4.252c-1.585-3.735-3.007-7.858-4.252-12.392l-0.011,0.001
		C322.471,1358.8,323.965,1362.853,325.611,1366.485z"/>
	<path stroke="#000000" stroke-width="1.3011" stroke-linejoin="round" d="M325.611,325.611c-1.646,3.633-3.14,7.685-4.468,12.186
		l0.011,0.001c1.246-4.534,2.667-8.657,4.252-12.392c3.735-1.585,7.858-3.007,12.392-4.252l-0.001-0.011
		C333.296,322.471,329.244,323.965,325.611,325.611z"/>
	<path id="path4093" fill="none" stroke="#000000" stroke-width="1.3011" stroke-linecap="round" d="M1303.638,334.694
		c179.677,1.311,183.636-361.616-331.61-179.831c-14.188,5.815-64.248,14.288-125.98,21.518
		c-61.732-7.231-111.792-15.703-125.98-21.518C204.822-26.922,208.781,336.005,388.458,334.694"/>
	<path fill="none" stroke="#000000" stroke-width="1.3011" stroke-linecap="round" d="M1357.403,1303.638
		c-1.311,179.677,361.616,183.636,179.831-331.61c-5.815-14.188-14.288-64.248-21.518-125.98
		c7.231-61.732,15.703-111.792,21.518-125.98c181.785-515.246-181.142-511.287-179.831-331.61"/>
	<path fill="none" stroke="#000000" stroke-width="1.3011" stroke-linecap="round" d="M388.458,1357.403
		c-179.677-1.311-183.636,361.616,331.61,179.831c14.188-5.815,64.248-14.288,125.98-21.518
		c61.732,7.231,111.792,15.703,125.98,21.518c515.247,181.785,511.287-181.142,331.61-179.831"/>
	<path fill="none" stroke="#000000" stroke-width="1.3011" stroke-linecap="round" d="M334.694,388.458
		c1.311-179.677-361.616-183.636-179.831,331.61c5.815,14.188,14.288,64.248,21.518,125.98
		c-7.231,61.732-15.703,111.792-21.518,125.98c-181.785,515.247,181.142,511.287,179.831,331.61"/>
	<path id="path4095" fill="none" stroke="#000000" stroke-width="1.3011" stroke-linecap="round" d="M1276.535,188.227
		c-8.277,10.344-20.372,19.271-29.06,21.174"/>
	<path id="path4095_6_" fill="none" stroke="#000000" stroke-width="1.3011" stroke-linecap="round" d="M188.227,415.561
		c10.344,8.277,19.271,20.372,21.174,29.06"/>
	<path id="path4095_4_" fill="none" stroke="#000000" stroke-width="1.3011" stroke-linecap="round" d="M415.561,1503.87
		c8.277-10.344,20.372-19.271,29.06-21.174"/>
	<path id="path4095_2_" fill="none" stroke="#000000" stroke-width="1.3011" stroke-linecap="round" d="M1503.87,1276.535
		c-10.344-8.277-19.271-20.372-21.174-29.06"/>
	<path id="path4095_1_" fill="none" stroke="#000000" stroke-width="1.3011" stroke-linecap="round" d="M1503.87,415.561
		c-10.344,8.277-19.271,20.372-21.174,29.06"/>
	<path id="path4095_7_" fill="none" stroke="#000000" stroke-width="1.3011" stroke-linecap="round" d="M415.561,188.227
		c8.277,10.344,20.372,19.271,29.06,21.174"/>
	<path id="path4095_5_" fill="none" stroke="#000000" stroke-width="1.3011" stroke-linecap="round" d="M188.227,1276.535
		c10.344-8.277,19.271-20.372,21.174-29.06"/>
	<path id="path4095_3_" fill="none" stroke="#000000" stroke-width="1.3011" stroke-linecap="round" d="M1276.535,1503.87
		c-8.277-10.344-20.372-19.271-29.06-21.174"/>
	<path id="path4097" fill="none" stroke="#000000" stroke-width="1.3011" d="M1318.713,157.928
		c65.594,2.682,99.758,64.031,77.435,118.6"/>
	<path id="path4097_6_" fill="none" stroke="#000000" stroke-width="1.3011" d="M157.928,373.383
		c2.682-65.594,64.031-99.758,118.6-77.435"/>
	<path id="path4097_4_" fill="none" stroke="#000000" stroke-width="1.3011" d="M373.383,1534.169
		c-65.594-2.682-99.758-64.031-77.435-118.6"/>
	<path id="path4097_2_" fill="none" stroke="#000000" stroke-width="1.3011" d="M1534.169,1318.713
		c-2.682,65.594-64.031,99.758-118.6,77.435"/>
	<path id="path4097_1_" fill="none" stroke="#000000" stroke-width="1.3011" d="M1534.169,373.383
		c-2.682-65.594-64.031-99.758-118.6-77.435"/>
	<path id="path4097_7_" fill="none" stroke="#000000" stroke-width="1.3011" d="M373.383,157.928
		c-65.594,2.682-99.758,64.031-77.435,118.6"/>
	<path id="path4097_5_" fill="none" stroke="#000000" stroke-width="1.3011" d="M157.928,1318.713
		c2.682,65.594,64.031,99.758,118.6,77.435"/>
	<path id="path4097_3_" fill="none" stroke="#000000" stroke-width="1.3011" d="M1318.713,1534.169
		c65.594-2.682,99.758-64.031,77.435-118.6"/>
	<path id="path4099" fill="none" stroke="#000000" stroke-width="1.3011" stroke-linecap="round" d="M1134.629,234.63
		c37.157-142.237,258.266-136.56,277.512-5.407"/>
	<path id="path4099_6_" fill="none" stroke="#000000" stroke-width="1.3011" stroke-linecap="round" d="M234.63,557.467
		C92.392,520.31,98.07,299.201,229.222,279.955"/>
	<path id="path4099_4_" fill="none" stroke="#000000" stroke-width="1.3011" stroke-linecap="round" d="M557.467,1457.467
		c-37.157,142.237-258.266,136.56-277.512,5.407"/>
	<path id="path4099_2_" fill="none" stroke="#000000" stroke-width="1.3011" stroke-linecap="round" d="M1457.467,1134.629
		c142.237,37.157,136.56,258.266,5.407,277.512"/>
	<path id="path4099_1_" fill="none" stroke="#000000" stroke-width="1.3011" stroke-linecap="round" d="M1457.467,557.467
		c142.237-37.157,136.56-258.266,5.407-277.512"/>
	<path id="path4099_7_" fill="none" stroke="#000000" stroke-width="1.3011" stroke-linecap="round" d="M557.467,234.63
		C520.31,92.392,299.201,98.07,279.955,229.222"/>
	<path id="path4099_5_" fill="none" stroke="#000000" stroke-width="1.3011" stroke-linecap="round" d="M234.63,1134.629
		c-142.237,37.157-136.56,258.266-5.407,277.512"/>
	<path id="path4099_3_" fill="none" stroke="#000000" stroke-width="1.3011" stroke-linecap="round" d="M1134.629,1457.467
		c37.157,142.237,258.266,136.56,277.512,5.407"/>
	<path id="path4101" stroke="#000000" stroke-width="1.3011" d="M1413.031,228.437c-54.353-166.733-238.324-82.091-249.123-48.995
		c-57.51,35.227-139.452,25.917-150.414-23.638c-6.518-29.472,21.063-91.497,75.177-50.473
		c-35.668-45.253-85.31,1.247-84.218,31.158c1.99,54.509,63.491,92.993,157.202,45.431
		c14.836-23.743,208.189-112.969,250.822,52.597L1413.031,228.437z"/>
	<path id="path4101_6_" stroke="#000000" stroke-width="1.3011" d="M228.437,279.066c-166.733,54.353-82.091,238.324-48.995,249.123
		c35.227,57.51,25.917,139.452-23.638,150.414c-29.472,6.518-91.497-21.063-50.473-75.177c-45.253,35.668,1.247,85.31,31.158,84.218
		c54.509-1.99,92.993-63.491,45.431-157.202c-23.743-14.836-112.969-208.189,52.597-250.822L228.437,279.066z"/>
	<path id="path4101_4_" stroke="#000000" stroke-width="1.3011" d="M279.066,1463.66c54.353,166.733,238.324,82.091,249.123,48.995
		c57.51-35.227,139.452-25.917,150.414,23.638c6.518,29.472-21.063,91.497-75.177,50.473c35.668,45.253,85.31-1.247,84.218-31.158
		c-1.99-54.509-63.491-92.993-157.202-45.431c-14.836,23.743-208.189,112.969-250.822-52.597L279.066,1463.66z"/>
	<path id="path4101_2_" stroke="#000000" stroke-width="1.3011" d="M1463.66,1413.031c166.733-54.353,82.091-238.324,48.995-249.123
		c-35.227-57.51-25.917-139.452,23.638-150.414c29.472-6.518,91.497,21.063,50.473,75.177c45.253-35.668-1.247-85.31-31.158-84.218
		c-54.509,1.99-92.993,63.491-45.431,157.202c23.743,14.836,112.969,208.189-52.597,250.822L1463.66,1413.031z"/>
	<path id="path4101_1_" stroke="#000000" stroke-width="1.3011" d="M1463.66,279.066c166.733,54.353,82.091,238.324,48.995,249.123
		c-35.227,57.51-25.917,139.452,23.638,150.414c29.472,6.518,91.497-21.063,50.473-75.177c45.253,35.668-1.247,85.31-31.158,84.218
		c-54.509-1.99-92.993-63.491-45.431-157.202c23.743-14.836,112.969-208.189-52.597-250.822L1463.66,279.066z"/>
	<path id="path4101_7_" stroke="#000000" stroke-width="1.3011" d="M279.066,228.437c54.353-166.733,238.324-82.091,249.123-48.995
		c57.51,35.227,139.452,25.917,150.414-23.638c6.518-29.472-21.063-91.497-75.177-50.473c35.668-45.253,85.31,1.247,84.218,31.158
		c-1.99,54.509-63.491,92.993-157.202,45.431c-14.836-23.743-208.189-112.969-250.822,52.597L279.066,228.437z"/>
	<path id="path4101_5_" stroke="#000000" stroke-width="1.3011" d="M228.437,1413.031
		c-166.733-54.353-82.091-238.324-48.995-249.123c35.227-57.51,25.917-139.452-23.638-150.414
		c-29.472-6.518-91.497,21.063-50.473,75.177c-45.253-35.668,1.247-85.31,31.158-84.218c54.509,1.99,92.993,63.491,45.431,157.202
		c-23.743,14.836-112.969,208.189,52.597,250.822L228.437,1413.031z"/>
	<path id="path4101_3_" stroke="#000000" stroke-width="1.3011" d="M1413.031,1463.66
		c-54.353,166.733-238.324,82.091-249.123,48.995c-57.51-35.227-139.452-25.917-150.414,23.638
		c-6.518,29.472,21.063,91.497,75.177,50.473c-35.668,45.253-85.31-1.247-84.218-31.158c1.99-54.509,63.491-92.993,157.202-45.431
		c14.836,23.743,208.189,112.969,250.822-52.597L1413.031,1463.66z"/>
	<path id="path4103" fill="none" stroke="#000000" stroke-width="1.3011" d="M1299.961,113.44
		c-59.225-4.53-135.04-2.51-316.183,66.721c-41.74,15.952-102.636,22.478-137.73,38.254c-35.094-15.776-95.99-22.302-137.73-38.254
		c-181.142-69.23-256.957-71.251-316.183-66.721"/>
	<path fill="none" stroke="#000000" stroke-width="1.3011" d="M1578.656,1299.961c4.531-59.225,2.51-135.04-66.721-316.183
		c-15.952-41.74-22.478-102.636-38.254-137.73c15.776-35.094,22.302-95.99,38.254-137.73
		c69.23-181.142,71.251-256.957,66.721-316.183"/>
	<path fill="none" stroke="#000000" stroke-width="1.3011" d="M392.135,1578.656c59.225,4.531,135.04,2.51,316.183-66.721
		c41.74-15.952,102.636-22.478,137.73-38.254c35.094,15.776,95.99,22.302,137.73,38.254
		c181.142,69.23,256.957,71.251,316.183,66.721"/>
	<path fill="none" stroke="#000000" stroke-width="1.3011" d="M113.44,392.135c-4.53,59.225-2.51,135.04,66.721,316.183
		c15.952,41.74,22.478,102.636,38.254,137.73c-15.776,35.094-22.302,95.99-38.254,137.73
		c-69.23,181.142-71.251,256.957-66.721,316.183"/>
	<path id="path4105" fill="none" stroke="#000000" stroke-width="1.3011" stroke-linecap="round" d="M1146.048,127.865
		c-72.406,34.49-113.057,63.075-133.575,90.072"/>
	<path id="path4105_6_" fill="none" stroke="#000000" stroke-width="1.3011" stroke-linecap="round" d="M127.865,546.048
		c34.49,72.406,63.075,113.057,90.072,133.575"/>
	<path id="path4105_4_" fill="none" stroke="#000000" stroke-width="1.3011" stroke-linecap="round" d="M546.048,1564.231
		c72.406-34.49,113.057-63.075,133.575-90.072"/>
	<path id="path4105_2_" fill="none" stroke="#000000" stroke-width="1.3011" stroke-linecap="round" d="M1564.231,1146.048
		c-34.49-72.406-63.075-113.057-90.072-133.575"/>
	<path id="path4105_1_" fill="none" stroke="#000000" stroke-width="1.3011" stroke-linecap="round" d="M1564.231,546.048
		c-34.49,72.406-63.075,113.057-90.072,133.575"/>
	<path id="path4105_7_" fill="none" stroke="#000000" stroke-width="1.3011" stroke-linecap="round" d="M546.048,127.865
		c72.406,34.49,113.057,63.075,133.575,90.072"/>
	<path id="path4105_5_" fill="none" stroke="#000000" stroke-width="1.3011" stroke-linecap="round" d="M127.865,1146.048
		c34.49-72.406,63.075-113.057,90.072-133.575"/>
	<path id="path4105_3_" fill="none" stroke="#000000" stroke-width="1.3011" stroke-linecap="round" d="M1146.048,1564.231
		c-72.406-34.49-113.057-63.075-133.575-90.072"/>
	<g id="g4113" transform="matrix(.99727 -.073871 .073871 .99727 -13.873 -1.5805)">
		<path id="path4107" stroke="#000000" stroke-width="1.3011" stroke-linecap="round" stroke-linejoin="round" d="M1154.577,352.063
			c1.088-8.581-3.336-18.66-25.254-26.147C1131.805,350.078,1148.805,354.982,1154.577,352.063z"/>
		<path id="path4107_6_" stroke="#000000" stroke-width="1.3011" stroke-linecap="round" stroke-linejoin="round" d="
			M238.184,549.212c-8.581-1.088-18.66,3.336-26.147,25.254C236.199,571.984,241.103,554.984,238.184,549.212z"/>
		<path id="path4107_4_" stroke="#000000" stroke-width="1.3011" stroke-linecap="round" stroke-linejoin="round" d="
			M435.333,1465.605c-1.088,8.581,3.336,18.66,25.254,26.147C458.105,1467.589,441.105,1462.686,435.333,1465.605z"/>
		<path id="path4107_2_" stroke="#000000" stroke-width="1.3011" stroke-linecap="round" stroke-linejoin="round" d="
			M1351.726,1268.455c8.581,1.089,18.66-3.336,26.146-25.254C1353.711,1245.684,1348.807,1262.684,1351.726,1268.455z"/>
		<path id="path4107_1_" stroke="#000000" stroke-width="1.3011" stroke-linecap="round" stroke-linejoin="round" d="
			M1398.635,635.171c8.648,0.188,17.965,6.049,22.14,28.831C1397.243,657.986,1394.898,640.449,1398.635,635.171z"/>
		<path id="path4107_7_" stroke="#000000" stroke-width="1.3011" stroke-linecap="round" stroke-linejoin="round" d="
			M521.292,305.154c0.188-8.648,6.049-17.965,28.831-22.14C544.107,306.546,526.57,308.891,521.292,305.154z"/>
		<path id="path4107_5_" stroke="#000000" stroke-width="1.3011" stroke-linecap="round" stroke-linejoin="round" d="
			M191.275,1182.497c-8.648-0.188-17.965-6.049-22.14-28.831C192.667,1159.682,195.012,1177.219,191.275,1182.497z"/>
		<path id="path4107_3_" stroke="#000000" stroke-width="1.3011" stroke-linecap="round" stroke-linejoin="round" d="
			M1068.618,1512.514c-0.188,8.647-6.049,17.964-28.831,22.14C1045.803,1511.122,1063.34,1508.777,1068.618,1512.514z"/>
		<path id="path4109" stroke="#000000" stroke-width="1.3011" d="M1124.694,344.069c12.417,27.39,8.222,48.546-4.175,46.402
			C1105.93,388.435,1109.751,365.853,1124.694,344.069L1124.694,344.069z"/>
		<path id="path4109_6_" stroke="#000000" stroke-width="1.3011" d="M230.19,579.094c27.39-12.417,48.546-8.222,46.402,4.175
			C274.557,597.859,251.974,594.038,230.19,579.094L230.19,579.094z"/>
		<path id="path4109_4_" stroke="#000000" stroke-width="1.3011" d="M465.215,1473.599c-12.417-27.39-8.222-48.546,4.175-46.402
			C483.98,1429.232,480.159,1451.815,465.215,1473.599L465.215,1473.599z"/>
		<path id="path4109_2_" stroke="#000000" stroke-width="1.3011" d="M1359.72,1238.573c-27.39,12.417-48.546,8.222-46.402-4.175
			C1315.353,1219.809,1337.936,1223.63,1359.72,1238.573L1359.72,1238.573z"/>
		<path id="path4109_1_" stroke="#000000" stroke-width="1.3011" d="M1402.139,665.904c-25.262-16.317-46.804-15.285-46.511-2.708
			C1355.492,677.927,1378.391,677.475,1402.139,665.904L1402.139,665.904z"/>
		<path id="path4109_7_" stroke="#000000" stroke-width="1.3011" d="M552.025,301.649c-16.317,25.262-15.285,46.804-2.708,46.511
			C564.048,348.297,563.596,325.398,552.025,301.649L552.025,301.649z"/>
		<path id="path4109_5_" stroke="#000000" stroke-width="1.3011" d="M187.77,1151.763c25.262,16.317,46.804,15.285,46.511,2.708
			C234.418,1139.741,211.519,1140.192,187.77,1151.763L187.77,1151.763z"/>
		<path id="path4109_3_" stroke="#000000" stroke-width="1.3011" d="M1037.884,1516.018c16.317-25.262,15.285-46.804,2.708-46.511
			C1025.862,1469.371,1026.313,1492.27,1037.884,1516.018L1037.884,1516.018z"/>
		<path id="path4111" stroke="#000000" stroke-width="1.3011" stroke-linecap="round" stroke-linejoin="round" d="M1093.45,347.892
			c0.186-8.647,6.046-17.965,28.827-22.144C1116.265,349.281,1098.729,351.628,1093.45,347.892z"/>
		<path id="path4111_6_" stroke="#000000" stroke-width="1.3011" stroke-linecap="round" stroke-linejoin="round" d="
			M234.013,610.339c-8.647-0.186-17.965-6.046-22.144-28.827C235.402,587.524,237.749,605.06,234.013,610.339z"/>
		<path id="path4111_4_" stroke="#000000" stroke-width="1.3011" stroke-linecap="round" stroke-linejoin="round" d="
			M496.46,1469.776c-0.186,8.647-6.046,17.965-28.827,22.144C473.645,1468.387,491.181,1466.039,496.46,1469.776z"/>
		<path id="path4111_2_" stroke="#000000" stroke-width="1.3011" stroke-linecap="round" stroke-linejoin="round" d="
			M1355.897,1207.328c8.647,0.186,17.965,6.046,22.144,28.827C1354.508,1230.144,1352.16,1212.607,1355.897,1207.328z"/>
		<path id="path4111_1_" stroke="#000000" stroke-width="1.3011" stroke-linecap="round" stroke-linejoin="round" d="
			M1393.755,696.245c8.58,1.09,18.659-3.333,26.149-25.25C1395.743,673.474,1390.837,690.473,1393.755,696.245z"/>
		<path id="path4111_7_" stroke="#000000" stroke-width="1.3011" stroke-linecap="round" stroke-linejoin="round" d="
			M582.366,310.034c1.09-8.58-3.333-18.659-25.25-26.149C559.595,308.046,576.594,312.952,582.366,310.034z"/>
		<path id="path4111_5_" stroke="#000000" stroke-width="1.3011" stroke-linecap="round" stroke-linejoin="round" d="
			M196.155,1121.423c-8.58-1.09-18.659,3.333-26.149,25.25C194.167,1144.194,199.073,1127.195,196.155,1121.423z"/>
		<path id="path4111_3_" stroke="#000000" stroke-width="1.3011" stroke-linecap="round" stroke-linejoin="round" d="
			M1007.544,1507.634c-1.09,8.58,3.333,18.659,25.25,26.149C1030.315,1509.621,1013.316,1504.715,1007.544,1507.634z"/>
	</g>
	<path id="path4140" stroke="#000000" stroke-width="1.3011" d="M1347.135,344.961c9.455-20.772,22.189-39.677,17.835-64.102
		c-10.267-30.012-55.523-21.896-54.314,3.345c0.159,16.619,7.4,24.591,18.795,31.22c6.321,3.676,22.124,3.383,31.06,2.071
		l-1.289,5.042c-8.842-0.348-1.625,3.337-31.364-5.36c-9.363-2.738-22.105-14.334-20.388-32.971
		c1.972-7.515,1.972-25.935,28.034-25.167c1.854,0.055,26.147,1.241,31.857,21.822c4.889,17.778,5.217,30.719,2.713,41.162
		c10.444-2.504,23.385-2.176,41.162,2.713c20.581,5.71,21.767,30.004,21.822,31.857c0.768,26.062-17.651,26.062-25.167,28.034
		c-18.637,1.716-30.232-11.026-32.971-20.388c-8.698-29.739-5.013-22.522-5.36-31.364l5.042-1.289
		c-1.312,8.937-1.606,24.74,2.071,31.06c6.628,11.395,14.601,18.636,31.22,18.795c25.241,1.208,33.356-44.048,3.345-54.314
		C1386.812,322.772,1367.907,335.506,1347.135,344.961z"/>
	<path stroke="#000000" stroke-width="1.3011" d="M1347.135,1347.135c20.772,9.455,39.677,22.189,64.102,17.835
		c30.012-10.267,21.896-55.523-3.345-54.314c-16.619,0.159-24.591,7.4-31.22,18.795c-3.676,6.321-3.383,22.124-2.071,31.06
		l-5.042-1.289c0.348-8.842-3.337-1.625,5.36-31.364c2.738-9.363,14.334-22.105,32.971-20.388
		c7.515,1.972,25.935,1.972,25.167,28.034c-0.055,1.854-1.241,26.147-21.822,31.857c-17.778,4.889-30.719,5.217-41.162,2.713
		c2.504,10.444,2.176,23.385-2.713,41.162c-5.71,20.581-30.004,21.767-31.857,21.822c-26.062,0.768-26.062-17.651-28.034-25.167
		c-1.716-18.637,11.026-30.232,20.388-32.971c29.739-8.698,22.522-5.013,31.364-5.36l1.289,5.042
		c-8.937-1.312-24.74-1.606-31.06,2.071c-11.395,6.628-18.636,14.601-18.795,31.22c-1.208,25.241,44.047,33.356,54.314,3.345
		C1369.324,1386.812,1356.59,1367.907,1347.135,1347.135z"/>
	<path stroke="#000000" stroke-width="1.3011" d="M344.961,1347.135c-9.455,20.772-22.189,39.677-17.835,64.102
		c10.267,30.012,55.523,21.896,54.314-3.345c-0.159-16.619-7.4-24.591-18.795-31.22c-6.321-3.676-22.124-3.383-31.06-2.071
		l1.289-5.042c8.842,0.348,1.625-3.337,31.364,5.36c9.363,2.738,22.105,14.334,20.388,32.971
		c-1.972,7.515-1.972,25.935-28.034,25.167c-1.854-0.055-26.147-1.241-31.857-21.822c-4.889-17.778-5.217-30.719-2.713-41.162
		c-10.444,2.504-23.385,2.176-41.162-2.713c-20.581-5.71-21.767-30.004-21.822-31.857c-0.768-26.062,17.651-26.062,25.167-28.034
		c18.637-1.716,30.232,11.026,32.971,20.388c8.698,29.739,5.013,22.522,5.36,31.364l-5.042,1.289
		c1.312-8.937,1.606-24.74-2.071-31.06c-6.628-11.395-14.601-18.636-31.22-18.795c-25.241-1.208-33.356,44.047-3.345,54.314
		C305.284,1369.324,324.189,1356.59,344.961,1347.135z"/>
	<path stroke="#000000" stroke-width="1.3011" d="M344.961,344.961c-20.772-9.455-39.677-22.189-64.102-17.835
		c-30.012,10.267-21.896,55.523,3.345,54.314c16.619-0.159,24.591-7.4,31.22-18.795c3.676-6.321,3.383-22.124,2.071-31.06
		l5.042,1.289c-0.348,8.842,3.337,1.625-5.36,31.364c-2.738,9.363-14.334,22.105-32.971,20.388
		c-7.515-1.972-25.935-1.972-25.167-28.034c0.055-1.854,1.241-26.147,21.822-31.857c17.778-4.889,30.719-5.217,41.162-2.713
		c-2.504-10.444-2.176-23.385,2.713-41.162c5.71-20.581,30.004-21.767,31.857-21.822c26.062-0.768,26.062,17.651,28.034,25.167
		c1.716,18.637-11.026,30.232-20.388,32.971c-29.739,8.698-22.522,5.013-31.364,5.36l-1.289-5.042
		c8.937,1.312,24.74,1.606,31.06-2.071c11.395-6.628,18.636-14.601,18.795-31.22c1.208-25.241-44.048-33.356-54.314-3.345
		C322.772,305.284,335.506,324.189,344.961,344.961z"/>
	<path id="path4144" stroke="#000000" stroke-width="1.3011" d="M1248.295,209.624c-5.006,10.052-17.313,15.32-24.517,6.179
		c-1.532,0.474-2.889,1.847-3.789,2.649c13.239,11.367,0.042,21.059-8.433,19.279c-4.876-1.37-13.125,9.812-18.974,15.049
		c-4.685-18.144,4.446-20.459,11.084-26.304c3.387-3.839-0.686-8.783-5.932-4.865c-7.238,6.418-14.35,13.295-26.077,3.556
		c-4.722-4.317-9.295-8.881-15.43-10.857c3.59-2.344,6.402-2.281,13.288-11.187c3.85-4.786,18.695-12.128,25.683,0.055
		c3.129,3.116,10.506,0.635,7.581-5.073c-7.409-6.63-16.953-12.069-12.108-25.496c5.234,5.455,8.601,14.584,22.309,14.976
		c13.266-1.511,14.625,14.224,5.451,17.488c0.802,1.097,2.372,2.533,3.768,3.321
		C1231.465,196.918,1242.221,201.451,1248.295,209.624L1248.295,209.624z"/>
	<path id="path4144_6_" stroke="#000000" stroke-width="1.3011" d="M209.624,443.801c10.052,5.006,15.32,17.313,6.179,24.517
		c0.474,1.532,1.847,2.889,2.649,3.789c11.367-13.239,21.059-0.042,19.279,8.433c-1.37,4.876,9.812,13.125,15.049,18.974
		c-18.144,4.685-20.459-4.446-26.304-11.084c-3.839-3.387-8.783,0.686-4.865,5.932c6.418,7.238,13.295,14.35,3.556,26.077
		c-4.317,4.722-8.881,9.295-10.857,15.43c-2.344-3.59-2.281-6.402-11.187-13.288c-4.786-3.85-12.128-18.695,0.055-25.683
		c3.116-3.129,0.635-10.507-5.073-7.581c-6.63,7.409-12.069,16.953-25.496,12.108c5.455-5.234,14.584-8.601,14.976-22.309
		c-1.511-13.266,14.224-14.625,17.488-5.451c1.097-0.802,2.533-2.372,3.321-3.768C196.918,460.631,201.451,449.876,209.624,443.801
		L209.624,443.801z"/>
	<path id="path4144_4_" stroke="#000000" stroke-width="1.3011" d="M443.801,1482.472c5.006-10.052,17.313-15.32,24.517-6.179
		c1.532-0.474,2.889-1.847,3.789-2.649c-13.239-11.367-0.042-21.059,8.433-19.279c4.876,1.37,13.125-9.812,18.974-15.049
		c4.685,18.144-4.446,20.459-11.084,26.304c-3.387,3.839,0.686,8.783,5.932,4.865c7.238-6.418,14.35-13.295,26.077-3.556
		c4.722,4.317,9.295,8.881,15.43,10.857c-3.59,2.344-6.402,2.281-13.288,11.187c-3.85,4.786-18.695,12.128-25.683-0.055
		c-3.129-3.116-10.507-0.635-7.581,5.073c7.409,6.63,16.953,12.069,12.108,25.496c-5.234-5.455-8.601-14.584-22.309-14.976
		c-13.266,1.511-14.625-14.224-5.451-17.488c-0.802-1.097-2.372-2.533-3.768-3.321
		C460.631,1495.179,449.876,1490.646,443.801,1482.472L443.801,1482.472z"/>
	<path id="path4144_2_" stroke="#000000" stroke-width="1.3011" d="M1482.472,1248.295c-10.052-5.006-15.32-17.313-6.179-24.517
		c-0.474-1.532-1.847-2.889-2.649-3.789c-11.367,13.239-21.059,0.042-19.279-8.433c1.37-4.876-9.812-13.125-15.049-18.974
		c18.144-4.685,20.459,4.446,26.304,11.084c3.839,3.387,8.783-0.686,4.865-5.932c-6.418-7.238-13.295-14.35-3.556-26.077
		c4.317-4.722,8.881-9.295,10.857-15.43c2.344,3.59,2.281,6.402,11.187,13.288c4.786,3.85,12.128,18.695-0.055,25.683
		c-3.116,3.129-0.635,10.506,5.073,7.581c6.63-7.409,12.069-16.953,25.496-12.108c-5.455,5.234-14.584,8.601-14.976,22.309
		c1.511,13.266-14.224,14.625-17.488,5.451c-1.097,0.802-2.533,2.372-3.321,3.768
		C1495.179,1231.465,1490.646,1242.221,1482.472,1248.295L1482.472,1248.295z"/>
	<path id="path4144_1_" stroke="#000000" stroke-width="1.3011" d="M1482.472,443.801c-10.052,5.006-15.32,17.313-6.179,24.517
		c-0.474,1.532-1.847,2.889-2.649,3.789c-11.367-13.239-21.059-0.042-19.279,8.433c1.37,4.876-9.812,13.125-15.049,18.974
		c18.144,4.685,20.459-4.446,26.304-11.084c3.839-3.387,8.783,0.686,4.865,5.932c-6.418,7.238-13.295,14.35-3.556,26.077
		c4.317,4.722,8.881,9.295,10.857,15.43c2.344-3.59,2.281-6.402,11.187-13.288c4.786-3.85,12.128-18.695-0.055-25.683
		c-3.116-3.129-0.635-10.507,5.073-7.581c6.63,7.409,12.069,16.953,25.496,12.108c-5.455-5.234-14.584-8.601-14.976-22.309
		c1.511-13.266-14.224-14.625-17.488-5.451c-1.097-0.802-2.533-2.372-3.321-3.768
		C1495.179,460.631,1490.646,449.876,1482.472,443.801L1482.472,443.801z"/>
	<path id="path4144_7_" stroke="#000000" stroke-width="1.3011" d="M443.801,209.624c5.006,10.052,17.313,15.32,24.517,6.179
		c1.532,0.474,2.889,1.847,3.789,2.649c-13.239,11.367-0.042,21.059,8.433,19.279c4.876-1.37,13.125,9.812,18.974,15.049
		c4.685-18.144-4.446-20.459-11.084-26.304c-3.387-3.839,0.686-8.783,5.932-4.865c7.238,6.418,14.35,13.295,26.077,3.556
		c4.722-4.317,9.295-8.881,15.43-10.857c-3.59-2.344-6.402-2.281-13.288-11.187c-3.85-4.786-18.695-12.128-25.683,0.055
		c-3.129,3.116-10.507,0.635-7.581-5.073c7.409-6.63,16.953-12.069,12.108-25.496c-5.234,5.455-8.601,14.584-22.309,14.976
		c-13.266-1.511-14.625,14.224-5.451,17.488c-0.802,1.097-2.372,2.533-3.768,3.321C460.631,196.918,449.876,201.451,443.801,209.624
		L443.801,209.624z"/>
	<path id="path4144_5_" stroke="#000000" stroke-width="1.3011" d="M209.624,1248.295c10.052-5.006,15.32-17.313,6.179-24.517
		c0.474-1.532,1.847-2.889,2.649-3.789c11.367,13.239,21.059,0.042,19.279-8.433c-1.37-4.876,9.812-13.125,15.049-18.974
		c-18.144-4.685-20.459,4.446-26.304,11.084c-3.839,3.387-8.783-0.686-4.865-5.932c6.418-7.238,13.295-14.35,3.556-26.077
		c-4.317-4.722-8.881-9.295-10.857-15.43c-2.344,3.59-2.281,6.402-11.187,13.288c-4.786,3.85-12.128,18.695,0.055,25.683
		c3.116,3.129,0.635,10.506-5.073,7.581c-6.63-7.409-12.069-16.953-25.496-12.108c5.455,5.234,14.584,8.601,14.976,22.309
		c-1.511,13.266,14.224,14.625,17.488,5.451c1.097,0.802,2.533,2.372,3.321,3.768
		C196.918,1231.465,201.451,1242.221,209.624,1248.295L209.624,1248.295z"/>
	<path id="path4144_3_" stroke="#000000" stroke-width="1.3011" d="M1248.295,1482.472c-5.006-10.052-17.313-15.32-24.517-6.179
		c-1.532-0.474-2.889-1.847-3.789-2.649c13.239-11.367,0.042-21.059-8.433-19.279c-4.876,1.37-13.125-9.812-18.974-15.049
		c-4.685,18.144,4.446,20.459,11.084,26.304c3.387,3.839-0.686,8.783-5.932,4.865c-7.238-6.418-14.35-13.295-26.077-3.556
		c-4.722,4.317-9.295,8.881-15.43,10.857c3.59,2.344,6.402,2.281,13.288,11.187c3.85,4.786,18.695,12.128,25.683-0.055
		c3.129-3.116,10.506-0.635,7.581,5.073c-7.409,6.63-16.953,12.069-12.108,25.496c5.234-5.455,8.601-14.584,22.309-14.976
		c13.266,1.511,14.625-14.224,5.451-17.488c0.802-1.097,2.372-2.533,3.768-3.321
		C1231.465,1495.179,1242.221,1490.646,1248.295,1482.472L1248.295,1482.472z"/>
	<path id="path4160" stroke="#000000" stroke-width="1.3011" stroke-linecap="round" stroke-linejoin="round" d="M1297.634,328.365
		c8.916,4.704,9.282,6.311,3.285,12.774c-25.252,7.01-54.758,8.657-71.04,28.487c-0.219-7.111-4.191-17.221,27.376-26.543
		c-11.467-1.817-24.655,2.925-36.414,2.567c-4.406-0.134-16.552-7.391-21.259-9.56c5.541-2.746,20.26-8.135,24.163-8.033
		c10.58,0.277,22.155,3.275,31.312,1.569c-30.658-8.558-27.671-22.573-26.131-26.795c11.105,12.661,29.698,23.374,68.708,25.537
		V328.365z"/>
	<path id="path4160_6_" stroke="#000000" stroke-width="1.3011" stroke-linecap="round" stroke-linejoin="round" d="
		M328.365,394.462c4.704-8.916,6.311-9.282,12.774-3.285c7.01,25.252,8.657,54.758,28.487,71.04
		c-7.111,0.219-17.221,4.191-26.543-27.376c-1.817,11.467,2.925,24.655,2.567,36.414c-0.134,4.405-7.391,16.552-9.56,21.259
		c-2.746-5.541-8.135-20.26-8.033-24.163c0.277-10.58,3.275-22.155,1.569-31.312c-8.558,30.658-22.573,27.671-26.795,26.131
		c12.661-11.105,23.374-29.698,25.537-68.708H328.365z"/>
	<path id="path4160_4_" stroke="#000000" stroke-width="1.3011" stroke-linecap="round" stroke-linejoin="round" d="
		M394.462,1363.731c-8.916-4.704-9.282-6.311-3.285-12.774c25.252-7.01,54.758-8.657,71.04-28.487
		c0.219,7.111,4.191,17.221-27.376,26.543c11.467,1.817,24.655-2.925,36.414-2.567c4.405,0.134,16.552,7.391,21.259,9.56
		c-5.541,2.746-20.26,8.135-24.163,8.033c-10.58-0.277-22.155-3.275-31.312-1.569c30.658,8.558,27.671,22.573,26.131,26.795
		c-11.105-12.661-29.698-23.374-68.708-25.537V1363.731z"/>
	<path id="path4160_2_" stroke="#000000" stroke-width="1.3011" stroke-linecap="round" stroke-linejoin="round" d="
		M1363.731,1297.634c-4.704,8.916-6.311,9.282-12.774,3.285c-7.01-25.252-8.657-54.758-28.487-71.04
		c7.111-0.219,17.221-4.191,26.543,27.376c1.817-11.467-2.925-24.655-2.567-36.414c0.134-4.406,7.391-16.552,9.56-21.259
		c2.746,5.541,8.135,20.26,8.033,24.163c-0.277,10.58-3.275,22.155-1.569,31.312c8.558-30.658,22.573-27.671,26.795-26.131
		c-12.661,11.105-23.374,29.698-25.537,68.708H1363.731z"/>
	<path id="path4160_1_" stroke="#000000" stroke-width="1.3011" stroke-linecap="round" stroke-linejoin="round" d="
		M1363.731,394.462c-4.704-8.916-6.311-9.282-12.774-3.285c-7.01,25.252-8.657,54.758-28.487,71.04
		c7.111,0.219,17.221,4.191,26.543-27.376c1.817,11.467-2.925,24.655-2.567,36.414c0.134,4.405,7.391,16.552,9.56,21.259
		c2.746-5.541,8.135-20.26,8.033-24.163c-0.277-10.58-3.275-22.155-1.569-31.312c8.558,30.658,22.573,27.671,26.795,26.131
		c-12.661-11.105-23.374-29.698-25.537-68.708H1363.731z"/>
	<path id="path4160_7_" stroke="#000000" stroke-width="1.3011" stroke-linecap="round" stroke-linejoin="round" d="
		M394.462,328.365c-8.916,4.704-9.282,6.311-3.285,12.774c25.252,7.01,54.758,8.657,71.04,28.487
		c0.219-7.111,4.191-17.221-27.376-26.543c11.467-1.817,24.655,2.925,36.414,2.567c4.405-0.134,16.552-7.391,21.259-9.56
		c-5.541-2.746-20.26-8.135-24.163-8.033c-10.58,0.277-22.155,3.275-31.312,1.569c30.658-8.558,27.671-22.573,26.131-26.795
		c-11.105,12.661-29.698,23.374-68.708,25.537V328.365z"/>
	<path id="path4160_5_" stroke="#000000" stroke-width="1.3011" stroke-linecap="round" stroke-linejoin="round" d="
		M328.365,1297.634c4.704,8.916,6.311,9.282,12.774,3.285c7.01-25.252,8.657-54.758,28.487-71.04
		c-7.111-0.219-17.221-4.191-26.543,27.376c-1.817-11.467,2.925-24.655,2.567-36.414c-0.134-4.406-7.391-16.552-9.56-21.259
		c-2.746,5.541-8.135,20.26-8.033,24.163c0.277,10.58,3.275,22.155,1.569,31.312c-8.558-30.658-22.573-27.671-26.795-26.131
		c12.661,11.105,23.374,29.698,25.537,68.708H328.365z"/>
	<path id="path4160_3_" stroke="#000000" stroke-width="1.3011" stroke-linecap="round" stroke-linejoin="round" d="
		M1297.634,1363.731c8.916-4.704,9.282-6.311,3.285-12.774c-25.252-7.01-54.758-8.657-71.04-28.487
		c-0.219,7.111-4.191,17.221,27.376,26.543c-11.467,1.817-24.655-2.925-36.414-2.567c-4.406,0.134-16.552,7.391-21.259,9.56
		c5.541,2.746,20.26,8.135,24.163,8.033c10.58-0.277,22.155-3.275,31.312-1.569c-30.658,8.558-27.671,22.573-26.131,26.795
		c11.105-12.661,29.698-23.374,68.708-25.537V1363.731z"/>
	<path id="path4180" stroke="#000000" stroke-width="1.3011" stroke-linecap="round" stroke-linejoin="round" d="M1003.243,217.458
		c9.493-3.39,10.925-2.574,11.634,6.215c-11.906,23.347-30.639,46.203-27.034,71.606c-5.388-4.649-15.523-8.554-1.053-38.118
		c-9.091,7.222-14.512,20.146-22.723,28.569c-3.076,3.156-16.636,7.2-21.416,9.203c1.722-5.939,7.701-20.429,10.415-23.236
		c7.356-7.608,17.389-14.112,22.323-22.013c-27.033,16.806-35.342,5.131-37.411,1.143c16.836,0.375,37.301-6.083,65.265-33.367
		L1003.243,217.458z"/>
	<path id="path4180_6_" stroke="#000000" stroke-width="1.3011" stroke-linecap="round" stroke-linejoin="round" d="
		M217.458,688.853c-3.39-9.493-2.574-10.925,6.215-11.634c23.347,11.906,46.203,30.639,71.606,27.034
		c-4.649,5.388-8.554,15.523-38.118,1.053c7.222,9.091,20.146,14.512,28.569,22.723c3.156,3.076,7.2,16.636,9.203,21.416
		c-5.939-1.722-20.429-7.701-23.236-10.415c-7.608-7.356-14.112-17.389-22.013-22.323c16.806,27.033,5.131,35.342,1.143,37.411
		c0.375-16.836-6.083-37.301-33.367-65.265L217.458,688.853z"/>
	<path id="path4180_4_" stroke="#000000" stroke-width="1.3011" stroke-linecap="round" stroke-linejoin="round" d="
		M688.853,1474.639c-9.493,3.39-10.925,2.574-11.634-6.215c11.906-23.347,30.639-46.203,27.034-71.606
		c5.388,4.649,15.523,8.554,1.053,38.118c9.091-7.222,14.512-20.146,22.723-28.569c3.076-3.156,16.636-7.2,21.416-9.203
		c-1.722,5.939-7.701,20.429-10.415,23.236c-7.356,7.609-17.389,14.112-22.323,22.013c27.033-16.806,35.342-5.131,37.411-1.143
		c-16.836-0.375-37.301,6.083-65.265,33.367L688.853,1474.639z"/>
	<path id="path4180_2_" stroke="#000000" stroke-width="1.3011" stroke-linecap="round" stroke-linejoin="round" d="
		M1474.639,1003.243c3.39,9.493,2.574,10.925-6.215,11.634c-23.347-11.906-46.203-30.639-71.606-27.034
		c4.649-5.388,8.554-15.523,38.118-1.053c-7.222-9.091-20.146-14.512-28.569-22.723c-3.156-3.076-7.2-16.636-9.203-21.416
		c5.939,1.722,20.429,7.701,23.236,10.415c7.609,7.356,14.112,17.389,22.013,22.323c-16.806-27.033-5.131-35.342-1.143-37.411
		c-0.375,16.836,6.083,37.301,33.367,65.265L1474.639,1003.243z"/>
	<path id="path4180_1_" stroke="#000000" stroke-width="1.3011" stroke-linecap="round" stroke-linejoin="round" d="
		M1474.639,688.853c3.39-9.493,2.574-10.925-6.215-11.634c-23.347,11.906-46.203,30.639-71.606,27.034
		c4.649,5.388,8.554,15.523,38.118,1.053c-7.222,9.091-20.146,14.512-28.569,22.723c-3.156,3.076-7.2,16.636-9.203,21.416
		c5.939-1.722,20.429-7.701,23.236-10.415c7.609-7.356,14.112-17.389,22.013-22.323c-16.806,27.033-5.131,35.342-1.143,37.411
		c-0.375-16.836,6.083-37.301,33.367-65.265L1474.639,688.853z"/>
	<path id="path4180_7_" stroke="#000000" stroke-width="1.3011" stroke-linecap="round" stroke-linejoin="round" d="
		M688.853,217.458c-9.493-3.39-10.925-2.574-11.634,6.215c11.906,23.347,30.639,46.203,27.034,71.606
		c5.388-4.649,15.523-8.554,1.053-38.118c9.091,7.222,14.512,20.146,22.723,28.569c3.076,3.156,16.636,7.2,21.416,9.203
		c-1.722-5.939-7.701-20.429-10.415-23.236c-7.356-7.608-17.389-14.112-22.323-22.013c27.033,16.806,35.342,5.131,37.411,1.143
		c-16.836,0.375-37.301-6.083-65.265-33.367L688.853,217.458z"/>
	<path id="path4180_5_" stroke="#000000" stroke-width="1.3011" stroke-linecap="round" stroke-linejoin="round" d="
		M217.458,1003.243c-3.39,9.493-2.574,10.925,6.215,11.634c23.347-11.906,46.203-30.639,71.606-27.034
		c-4.649-5.388-8.554-15.523-38.118-1.053c7.222-9.091,20.146-14.512,28.569-22.723c3.156-3.076,7.2-16.636,9.203-21.416
		c-5.939,1.722-20.429,7.701-23.236,10.415c-7.608,7.356-14.112,17.389-22.013,22.323c16.806-27.033,5.131-35.342,1.143-37.411
		c0.375,16.836-6.083,37.301-33.367,65.265L217.458,1003.243z"/>
	<path id="path4180_3_" stroke="#000000" stroke-width="1.3011" stroke-linecap="round" stroke-linejoin="round" d="
		M1003.243,1474.639c9.493,3.39,10.925,2.574,11.634-6.215c-11.906-23.347-30.639-46.203-27.034-71.606
		c-5.388,4.649-15.523,8.554-1.053,38.118c-9.091-7.222-14.512-20.146-22.723-28.569c-3.076-3.156-16.636-7.2-21.416-9.203
		c1.722,5.939,7.701,20.429,10.415,23.236c7.356,7.609,17.389,14.112,22.323,22.013c-27.033-16.806-35.342-5.131-37.411-1.143
		c16.836-0.375,37.301,6.083,65.265,33.367L1003.243,1474.639z"/>
</g>
</svg>
