<?xml version="1.0" encoding="utf-8"?>

<!DOCTYPE svg PUBLIC "-//W3C//DTD SVG 1.1//EN" "http://www.w3.org/Graphics/SVG/1.1/DTD/svg11.dtd">
<svg version="1.1" id="Layer_1" xmlns="http://www.w3.org/2000/svg" xmlns:xlink="http://www.w3.org/1999/xlink" x="0px" y="0px"
	 viewBox="0 0 2632.733 1639.88" enable-background="new 0 0 2632.733 1639.88" xml:space="preserve">
<g>
	<path d="M2549.664,803.581c-82.424-52.353-160.033-220.162-320.616-242.939c-70.305-254.299-358.885-286.762-426.236-217.57
		c-84.677-78.693-288.851-108.187-354.755-109.469c-29.657-78.093-99.638-134.814-131.691-210.951
		c-32.053,76.137-102.034,132.858-131.691,210.951c-65.904,1.281-270.077,30.776-354.754,109.469
		c-67.351-69.192-355.932-36.73-426.237,217.57C243.103,583.419,165.493,751.228,83.069,803.581
		c-14.039,9.105-30.062,14.924-46.703,16.694c103.575,2.51,174.667,228.581,367.681,259.19
		c65.071,248.381,355.07,288.76,425.874,217.261c83.818,77.404,286.913,108.635,354.741,109.455
		c30.007,78.689,99.778,134.848,131.704,211.046c31.926-76.198,101.698-132.357,131.704-211.046
		c67.828-0.82,270.923-32.052,354.741-109.455c70.804,71.498,360.804,31.119,425.874-217.261
		c193.013-30.609,264.105-256.68,367.68-259.19C2579.726,818.505,2563.703,812.685,2549.664,803.581z M2196.532,1043.503
		c-38.094,200.207-229.727,269.948-345.798,236.449c-11.115-1.33,5.367-25.569,2.749-45.75
		c-2.187-21.906-26.593-31.395-48.285-35.56c-27.092,1.591-72.428,27.681-39.502,81.766
		c-84.642,56.724-270.006,86.646-344.041,87.572c-23.662,60.979-69.308,112.862-105.289,167.462
		c-35.982-54.6-81.627-106.484-105.289-167.462c-74.034-0.926-259.399-30.848-344.041-87.572
		c32.926-54.085-12.41-80.175-39.502-81.766c-21.691,4.165-46.097,13.655-48.285,35.56c-2.618,20.182,13.865,44.421,2.749,45.75
		c-116.07,33.499-307.704-36.243-345.797-236.449c-215.086-14.148-221.979-175.712-327.039-223.564
		c103.983-46.894,113.126-210.478,327.039-223.644c38.435-201.908,232.575-270.571,346.789-236.127
		c11.278,2.435-14.999,37.389,1.797,59.722c11.359,15.224,40.493,22.291,46.474,20.971c40.648-7.549,62.013-38.501,35.774-81.458
		c85.702-57.621,274.784-86.833,344.014-87.559c23.722-61.202,69.341-112.884,105.316-167.469
		c35.975,54.585,81.594,106.266,105.316,167.469c69.23,0.726,258.312,29.938,344.014,87.559
		c-26.238,42.957-4.873,73.909,35.775,81.458c5.981,1.319,35.115-5.748,46.475-20.971c16.795-22.333-9.482-57.287,1.797-59.722
		c114.215-34.443,308.354,34.219,346.79,236.127c213.913,13.165,223.055,176.749,327.039,223.644
		C2418.511,867.791,2411.617,1029.355,2196.532,1043.503z"/>
	<path d="M2127.705,680.033c-5.525-259.752-209.301-281.463-286.182-190.082c45.012-30.338,136.64-37.406,150.687,29.03
		c20.073-1.18,40.159,2.735,58.69,10.352c-14.19,13.451-29.427,28.182-24.659,54.077c48.839-15.459,64.568,52.38,51.355,93.003
		c-14.586,47.307-69.626,99.906-136.862,101.973c-11.17,0.657-22.272-0.925-33.415-1.435c-15.679,11.866-14.921,35.336-13.61,57.617
		c0.939,9.909,4.197,20.355,12.095,26.938c1.904,2.132,4.961,1.046,7.428,1.059c118.456-13.203,199.41,101.501,157.619,176.043
		c-11.165,20.434-24.866,23.771-44.624,17.78c-4.982,27.938,13.582,43.788,24.685,54.051c-18.531,7.656-38.63,11.545-58.69,10.378
		c-15.425,67.495-106.078,58.597-150.687,29.07c78.188,91.869,280.8,68.437,286.156-190.122
		c195.096,95.146,249.093-140.989,335.928-139.41c-3.982-0.952-8.072-1.328-12.041-2.36
		C2367.493,794.507,2311.831,589.876,2127.705,680.033z M2270.092,876.819c-78.399,100.366-213.339-50.391-376.476-53.822
		c0.067-2.078,0.094-4.143,0.094-6.195c136.606-3.123,260.841-112.427,336.733-83.925
		C2277.481,751.291,2316.438,817.807,2270.092,876.819z"/>
	<path d="M640.51,1120.818c-20.06,1.167-40.159-2.722-58.69-10.378c11.103-10.263,29.667-26.113,24.686-54.051
		c-19.758,5.991-33.459,2.654-44.624-17.78c-41.791-74.542,39.164-189.246,157.62-176.043c2.467-0.013,5.524,1.073,7.428-1.059
		c7.898-6.584,11.156-17.029,12.095-26.938c1.31-22.281,2.069-45.752-13.61-57.617c-11.143,0.51-22.245,2.092-33.414,1.435
		c-67.237-2.067-122.276-54.666-136.863-101.973c-13.213-40.622,2.516-108.462,51.355-93.003
		c4.768-25.895-10.469-40.626-24.659-54.077c18.531-7.616,38.617-11.532,58.69-10.352c14.047-66.436,105.675-59.367,150.687-29.03
		c-76.882-91.381-280.657-69.67-286.182,190.082C320.903,589.876,265.24,794.507,181.154,817.995
		c-3.969,1.032-8.059,1.408-12.041,2.36c86.835-1.578,140.833,234.557,335.929,139.41c5.355,258.56,207.967,281.991,286.155,190.122
		C746.587,1179.414,655.935,1188.312,640.51,1120.818z M362.641,876.819c-46.345-59.013-7.389-125.528,39.649-143.943
		c75.892-28.502,200.127,80.803,336.733,83.925c0,2.052,0.027,4.117,0.094,6.195C575.979,826.428,441.04,977.185,362.641,876.819z"
		/>
	<path d="M1989.046,527.321c-12.877-46.288-58.229-60.428-102.925-48.674c90.281,41.22,76.44,79.852,81.23,128.026
		c6.742,66.424,70.801,63.018,92.333,35.64c28.719-37.207-12.793-65.791-40.789-50.229c-7.306-22.803-0.799-40.229,15.313-58.516
		C2019.845,528.219,2004.372,525.269,1989.046,527.321z"/>
	<path d="M573.05,642.314c21.532,27.378,85.59,30.784,92.332-35.64c4.789-48.174-9.05-86.807,81.23-128.026
		c-44.697-11.754-90.048,2.385-102.926,48.674c-15.326-2.052-30.8,0.898-45.16,6.248c16.112,18.286,22.619,35.712,15.313,58.516
		C585.843,576.523,544.331,605.108,573.05,642.314z"/>
	<path d="M2064.657,1037.643c18.936-27.544-22.497-74.673-68.089-53.474c-42.017,19.704-23.581,72.125-35.587,109.228
		c-10.252,33.487-42.999,53.51-74.874,67.674c41.719,11.42,88.292,0.15,102.966-48.606c15.286,1.931,30.907-0.644,45.107-6.45
		c-15.769-17.177-22.727-35.876-15.286-58.287C2033.804,1055.92,2054.882,1051.843,2064.657,1037.643z"/>
	<path d="M643.661,1112.464c14.674,48.756,61.247,60.026,102.966,48.606c-31.875-14.164-64.621-34.186-74.874-67.674
		c-12.006-37.103,6.431-89.524-35.586-109.228c-45.593-21.199-87.026,25.93-68.09,53.474c9.775,14.2,30.853,18.276,45.764,10.083
		c7.441,22.412,0.482,41.11-15.286,58.287C612.754,1111.82,628.375,1114.395,643.661,1112.464z"/>
	<path d="M1961.008,754.29c-17.393-80.63-100.234-54.472-134.65-11.438c-105.021,130.183,105.866,275.141,134.65,142.655
		C1852.881,906.745,1860.167,730.535,1961.008,754.29z"/>
	<path d="M806.376,742.853c-34.417-43.035-117.257-69.193-134.65,11.438c100.841-23.755,108.127,152.454,0,131.218
		C700.51,1017.993,911.396,873.036,806.376,742.853z"/>
	<path d="M744.347,564.932c-11.196-2.36-21.669-7.442-30.974-14.012c10.107,33.022,30.221,69.314,62.994,80.908
		c27.671,9.984,52.634-1.249,61.023-3.62c-2.395,34.759,43.583,104.158,45.723,102.684c12.256-5.886,24.471-12.926,33.281-23.506
		c-14.428-16.653-22.312-37.584-29.673-58.019c-11.972-40.585,4.435-91.941,25.021-127.852
		c12.443,15.554,24.082,34.072,43.337,42.157c23.747,9.547,51.999-0.872,67.379-20.435c18.992-24.252,13.444-70.804-18.249-78.495
		c-22.784-5.204-47.065,14.957-51.597,33.039c-6.737,25.393,27.94,48.309,56.867,18.102c-10.928,26.708-35.224,28.006-52.723,16.573
		c-26.251-17.226-9.797-52.501,8.863-66.454c14.516-11.466,74.14-40.361,105.352-49.076
		c102.239-29.317,177.737,14.024,245.397,81.621c67.659-67.597,143.158-110.938,245.397-81.621
		c31.212,8.715,90.836,37.61,105.352,49.076c18.659,13.952,35.114,49.228,8.863,66.454c-17.499,11.433-41.795,10.135-52.723-16.573
		c28.926,30.207,63.604,7.291,56.866-18.102c-4.531-18.082-28.813-38.243-51.597-33.039c-31.694,7.691-37.241,54.242-18.249,78.495
		c15.38,19.563,43.632,29.982,67.379,20.435c19.255-8.086,30.894-26.603,43.337-42.157c20.585,35.912,36.993,87.267,25.021,127.852
		c-7.362,20.435-15.246,41.366-29.674,58.019c8.81,10.58,21.025,17.619,33.28,23.506c2.141,1.474,48.118-67.925,45.724-102.684
		c8.389,2.372,33.353,13.604,61.023,3.62c32.773-11.594,52.888-47.886,62.995-80.908c-9.306,6.57-19.778,11.652-30.974,14.012
		c-75.525,16.37-140.63-101.226-192.482-147.777c-115.248-96.609-268.115-95.993-379.537-35.979
		c-111.422-60.014-264.29-60.63-379.538,35.979C884.977,463.707,819.871,581.303,744.347,564.932z"/>
	<path d="M1919.36,1088.891c-19.821-64.905-59.944-100.354-124.017-77.288c1.991-29.768-28.193-78.215-44.302-103.126
		c-12.98,5.471-25.383,13.194-34.756,23.841c9.266,10.781,16.064,23.358,21.427,36.472c7.146,17.922,20.019,41.753,6.691,92.654
		c-5.337,19.993-13.382,39.234-23.586,57.228c-11.705-15.996-23.599-33.575-42.197-42.13
		c-47.339-20.341-105.101,37.286-68.116,88.337c13.243,20.02,58.972,11.478,69.162-21.199c8.614-26.3-27.084-50.52-56.41-19.778
		c21.753-53.165,101.3-6.118,50.309,44.115c-18.294,18.244-86.956,48.409-115.664,55.914
		c-100.183,27.067-174.72-15.723-241.535-82.157c-66.815,66.434-141.351,109.224-241.536,82.157
		c-28.708-7.505-97.37-37.671-115.663-55.914c-50.991-50.233,28.556-97.28,50.31-44.115c-29.327-30.742-65.024-6.522-56.411,19.778
		c10.19,32.677,55.92,41.219,69.162,21.199c36.984-51.051-20.777-108.678-68.117-88.337c-18.598,8.555-30.491,26.134-42.197,42.13
		c-10.204-17.994-18.249-37.236-23.586-57.228c-13.328-50.901-0.456-74.732,6.691-92.654c5.364-13.114,12.162-25.691,21.427-36.472
		c-9.373-10.647-21.775-18.37-34.755-23.841c-16.109,24.912-46.293,73.358-44.302,103.126
		c-64.074-23.066-104.197,12.383-124.018,77.288c36.776-26.279,73.329-16.949,108.624,10.982
		c61.705,49.684,76.991,100.525,148.743,147.764c110.739,72.203,245.986,64.092,345.627,10.8
		c99.64,53.293,234.888,61.403,345.627-10.8c71.752-47.239,87.038-98.08,148.743-147.764
		C1846.031,1071.943,1882.584,1062.613,1919.36,1088.891z"/>
	<path d="M1792.045,798.727c3.352-10.499,6.946-20.904,10.137-31.443c-206.491-92.437-338.05-345.661-343.585-348.707
		c-11.572,3.071-23.546,6.477-32.986,14.213C1526.249,594.652,1620.704,715.238,1792.045,798.727z"/>
	<path d="M1174.136,418.576c-5.536,3.046-137.094,256.27-343.585,348.707c3.191,10.539,6.785,20.944,10.137,31.443
		c171.34-83.489,265.796-204.074,366.433-365.937C1197.682,425.053,1185.708,421.647,1174.136,418.576z"/>
	<path d="M1802.182,872.515c-3.191-10.539-6.785-20.958-10.137-31.443c-169.544,82.43-265.797,203.351-366.434,365.911
		c9.641,7.683,21.897,11.826,33.777,14.025C1540.631,1084.06,1658.002,936.868,1802.182,872.515z"/>
	<path d="M1173.345,1221.008c11.88-2.199,24.136-6.342,33.776-14.025c-100.637-162.559-196.889-283.48-366.433-365.911
		c-3.352,10.485-6.945,20.904-10.137,31.443C974.731,936.868,1092.102,1084.06,1173.345,1221.008z"/>
	<path d="M1441.608,1116.084c-42.938-48.881-37.808-98.634-3.54-130.386c-10.427-23.323,3.684-30.217,26.563-40.226
		c-5.833-7.174-9.654-17.244-6.088-26.281c6.604-16.63,27.882-19.093,33.146-23.881c51.858-39.775,133.539-36.62,190.39-3.902
		c12.041-7.147,24.364-13.838,36.23-21.28c-31.403-23.049-67.674-38.443-104.669-50.055c36.834-12.188,73.305-27.166,104.682-50.43
		c-11.893-7.402-24.189-14.133-36.257-21.253c-31.913,18.303-69.229,26.697-105.902,24.994
		c-30.666-1.488-61.64-10.767-85.937-29.982c-3.339-2.521-7.643-3.057-11.371-4.827c-24.335-10.619-27.131-28.827-14.227-44.115
		c-20.243-9.454-37.841-16.196-26.522-40.307c-34.143-31.691-39.604-81.468,3.5-130.427c-57.101,31.632-75.2,127.095-54.922,169.58
		c-28.219-1.949-50.94,0.625-70.319,6.359c-19.38-5.735-42.1-8.308-70.319-6.359c20.277-42.485,2.179-137.948-54.922-169.58
		c43.103,48.959,37.643,98.736,3.5,130.427c11.318,24.11-6.28,30.853-26.523,40.307c12.905,15.288,10.108,33.495-14.227,44.115
		c-3.727,1.77-8.032,2.306-11.37,4.827c-24.297,19.215-55.271,28.494-85.937,29.982c-36.673,1.703-73.99-6.691-105.902-24.994
		c-12.068,7.12-24.363,13.851-36.257,21.253c31.377,23.264,67.848,38.242,104.682,50.43
		c-36.995,11.612-73.265,27.005-104.668,50.055c11.866,7.442,24.189,14.133,36.23,21.28c56.851-32.718,138.533-35.873,190.39,3.902
		c5.265,4.788,26.542,7.251,33.146,23.881c3.567,9.037-0.255,19.107-6.088,26.281c22.879,10.009,36.989,16.903,26.563,40.226
		c34.268,31.752,39.398,81.505-3.54,130.386c57.264-31.844,75.128-127.3,54.922-169.593c28.213,1.964,50.93-0.606,70.319-6.347
		c19.389,5.741,42.106,8.311,70.319,6.347C1366.48,988.785,1384.344,1084.24,1441.608,1116.084z M1316.367,864.491
		c-51.385,64.82-158.791-42.948-216.407-43.881c0.282-0.308,0.872-0.952,1.153-1.274c42.614,7.623,161.488-110.375,215.254-44.282
		c53.765-66.093,172.64,51.905,215.254,44.282c0.282,0.322,0.871,0.966,1.153,1.274
		C1475.157,821.543,1367.751,929.311,1316.367,864.491z"/>
	<path d="M1475.733,688.668c-33.449,35.118,11.41,49.174,28.132,38.765c20.714-12.922,23.795-49.544-7.496-67.982
		c-17.981-11.33-36.311-23.331-48.808-40.924c-15.836-21.508-19.858-50.497-12.912-75.974c-0.295,0.148-0.885,0.443-1.18,0.603
		c-28.456,40.184-15.696,88.159,13.838,107.069C1431.842,676.721,1456.645,688.093,1475.733,688.668z"/>
	<path d="M1136.364,659.451c-31.291,18.439-28.21,55.06-7.495,67.982c16.721,10.409,61.581-3.647,28.131-38.765
		c19.088-0.575,43.891-11.947,28.427-38.443c29.534-18.91,42.294-66.885,13.838-107.069c-0.295-0.161-0.885-0.456-1.18-0.603
		c6.945,25.477,2.923,54.466-12.913,75.974C1172.675,636.119,1154.345,648.12,1136.364,659.451z"/>
	<path d="M1519.767,943.273c-0.66-56.357-87.046-36.221-43.967,7.871c-24.357,0.599-43.518,17.223-28.386,38.014
		c-32.049,21.912-41.294,70.372-13.06,108.758c0.351-1.816-11.454-38.343,10.003-71.871
		C1470.922,983.011,1519.594,982.575,1519.767,943.273z"/>
	<path d="M1156.933,951.144c43.079-44.091-43.307-64.228-43.967-7.871c0.173,39.302,48.845,39.738,75.411,82.772
		c21.458,33.528,9.652,70.054,10.003,71.871c28.234-38.386,18.989-86.846-13.06-108.758
		C1200.451,968.367,1181.29,951.742,1156.933,951.144z"/>
	<path d="M1316.367,288.257c21.95,18.86,38.858,43.466,50.769,69.725c15.339-6.611,30.062-14.602,45.362-21.32
		c-6.29-12.851-43.64-75.207-96.131-136.284c-52.491,61.077-89.841,123.434-96.131,136.284c15.299,6.718,30.022,14.709,45.362,21.32
		C1277.508,331.723,1294.417,307.117,1316.367,288.257z"/>
	<path d="M1316.367,1351.603c-22.045-18.964-38.725-43.847-51.239-69.975c-14.884,7.375-29.861,14.589-44.919,21.562
		c25.958,45.384,58.512,93.857,96.158,137.432c37.646-43.575,70.199-92.048,96.158-137.432
		c-15.058-6.973-30.036-14.187-44.919-21.562C1355.091,1307.756,1338.411,1332.639,1316.367,1351.603z"/>
</g>
</svg>
