<svg xmlns="http://www.w3.org/2000/svg" xmlns:xlink="http://www.w3.org/1999/xlink" width="1080" zoomAndPan="magnify" viewBox="0 0 810 1439.999935" height="1920" preserveAspectRatio="xMidYMid meet" version="1.0"><defs><g/><clipPath id="9841e005b3"><rect x="0" width="118" y="0" height="24"/></clipPath><clipPath id="b53277525e"><rect x="0" width="315" y="0" height="122"/></clipPath></defs><rect x="-81" width="972" fill="#ffffff" y="-143.999994" height="1727.999922" fill-opacity="1"/><rect x="-81" width="972" fill="#ffffff" y="-143.999994" height="1727.999922" fill-opacity="1"/><g transform="matrix(1, 0, 0, 1, 465, 635)"><g clip-path="url(#9841e005b3)"><g fill="#000000" fill-opacity="1"><g transform="translate(1.272437, 18.262169)"><g><path d="M 6.84375 -12.734375 C 8.46875 -12.734375 9.738281 -12.34375 10.65625 -11.5625 C 11.582031 -10.789062 12.046875 -9.726562 12.046875 -8.375 C 12.046875 -7.007812 11.582031 -5.941406 10.65625 -5.171875 C 9.738281 -4.398438 8.46875 -4.015625 6.84375 -4.015625 L 3.421875 -4.015625 L 3.421875 0 L 2.078125 0 L 2.078125 -12.734375 Z M 6.8125 -5.203125 C 8.070312 -5.203125 9.035156 -5.476562 9.703125 -6.03125 C 10.367188 -6.582031 10.703125 -7.363281 10.703125 -8.375 C 10.703125 -9.40625 10.367188 -10.195312 9.703125 -10.75 C 9.035156 -11.300781 8.070312 -11.578125 6.8125 -11.578125 L 3.421875 -11.578125 L 3.421875 -5.203125 Z M 6.8125 -5.203125 "/></g></g></g><g fill="#000000" fill-opacity="1"><g transform="translate(18.509863, 18.262169)"><g><path d="M 10.78125 0 L 7.859375 -4.09375 C 7.535156 -4.0625 7.195312 -4.046875 6.84375 -4.046875 L 3.421875 -4.046875 L 3.421875 0 L 2.078125 0 L 2.078125 -12.734375 L 6.84375 -12.734375 C 8.46875 -12.734375 9.738281 -12.34375 10.65625 -11.5625 C 11.582031 -10.789062 12.046875 -9.726562 12.046875 -8.375 C 12.046875 -7.375 11.796875 -6.53125 11.296875 -5.84375 C 10.796875 -5.164062 10.078125 -4.675781 9.140625 -4.375 L 12.25 0 Z M 6.8125 -5.1875 C 8.070312 -5.1875 9.035156 -5.460938 9.703125 -6.015625 C 10.367188 -6.578125 10.703125 -7.363281 10.703125 -8.375 C 10.703125 -9.40625 10.367188 -10.195312 9.703125 -10.75 C 9.035156 -11.300781 8.070312 -11.578125 6.8125 -11.578125 L 3.421875 -11.578125 L 3.421875 -5.1875 Z M 6.8125 -5.1875 "/></g></g></g><g fill="#000000" fill-opacity="1"><g transform="translate(35.838291, 18.262169)"><g><path d="M 7.640625 0.109375 C 6.378906 0.109375 5.234375 -0.171875 4.203125 -0.734375 C 3.179688 -1.296875 2.382812 -2.066406 1.8125 -3.046875 C 1.238281 -4.035156 0.953125 -5.144531 0.953125 -6.375 C 0.953125 -7.59375 1.238281 -8.691406 1.8125 -9.671875 C 2.382812 -10.660156 3.179688 -11.4375 4.203125 -12 C 5.234375 -12.5625 6.378906 -12.84375 7.640625 -12.84375 C 8.898438 -12.84375 10.035156 -12.5625 11.046875 -12 C 12.066406 -11.445312 12.867188 -10.675781 13.453125 -9.6875 C 14.035156 -8.695312 14.328125 -7.59375 14.328125 -6.375 C 14.328125 -5.144531 14.035156 -4.035156 13.453125 -3.046875 C 12.867188 -2.054688 12.066406 -1.28125 11.046875 -0.71875 C 10.035156 -0.164062 8.898438 0.109375 7.640625 0.109375 Z M 7.640625 -1.09375 C 8.648438 -1.09375 9.5625 -1.316406 10.375 -1.765625 C 11.1875 -2.222656 11.820312 -2.851562 12.28125 -3.65625 C 12.75 -4.46875 12.984375 -5.375 12.984375 -6.375 C 12.984375 -7.363281 12.75 -8.257812 12.28125 -9.0625 C 11.820312 -9.875 11.1875 -10.507812 10.375 -10.96875 C 9.5625 -11.425781 8.648438 -11.65625 7.640625 -11.65625 C 6.640625 -11.65625 5.726562 -11.425781 4.90625 -10.96875 C 4.082031 -10.507812 3.4375 -9.875 2.96875 -9.0625 C 2.507812 -8.257812 2.28125 -7.363281 2.28125 -6.375 C 2.28125 -5.375 2.507812 -4.46875 2.96875 -3.65625 C 3.4375 -2.851562 4.082031 -2.222656 4.90625 -1.765625 C 5.726562 -1.316406 6.640625 -1.09375 7.640625 -1.09375 Z M 7.640625 -1.09375 "/></g></g></g><g fill="#000000" fill-opacity="1"><g transform="translate(55.278071, 18.262169)"><g><path d="M 3.4375 0.109375 C 2.707031 0.109375 2.03125 -0.046875 1.40625 -0.359375 C 0.789062 -0.679688 0.289062 -1.132812 -0.09375 -1.71875 L 0.703125 -2.625 C 1.410156 -1.582031 2.328125 -1.0625 3.453125 -1.0625 C 5.035156 -1.0625 5.828125 -1.992188 5.828125 -3.859375 L 5.828125 -11.578125 L 1.171875 -11.578125 L 1.171875 -12.734375 L 7.15625 -12.734375 L 7.15625 -3.90625 C 7.15625 -2.570312 6.84375 -1.566406 6.21875 -0.890625 C 5.59375 -0.222656 4.664062 0.109375 3.4375 0.109375 Z M 3.4375 0.109375 "/></g></g></g><g fill="#000000" fill-opacity="1"><g transform="translate(68.565814, 18.262169)"><g><path d="M 11.078125 -1.171875 L 11.078125 0 L 2.078125 0 L 2.078125 -12.734375 L 10.8125 -12.734375 L 10.8125 -11.578125 L 3.421875 -11.578125 L 3.421875 -7.046875 L 10.015625 -7.046875 L 10.015625 -5.890625 L 3.421875 -5.890625 L 3.421875 -1.171875 Z M 11.078125 -1.171875 "/></g></g></g><g fill="#000000" fill-opacity="1"><g transform="translate(84.911379, 18.262169)"><g><path d="M 7.609375 0.109375 C 6.347656 0.109375 5.207031 -0.164062 4.1875 -0.71875 C 3.175781 -1.28125 2.382812 -2.054688 1.8125 -3.046875 C 1.238281 -4.035156 0.953125 -5.144531 0.953125 -6.375 C 0.953125 -7.59375 1.238281 -8.695312 1.8125 -9.6875 C 2.382812 -10.675781 3.179688 -11.445312 4.203125 -12 C 5.222656 -12.5625 6.363281 -12.84375 7.625 -12.84375 C 8.570312 -12.84375 9.445312 -12.6875 10.25 -12.375 C 11.050781 -12.0625 11.726562 -11.601562 12.28125 -11 L 11.4375 -10.140625 C 10.4375 -11.148438 9.175781 -11.65625 7.65625 -11.65625 C 6.65625 -11.65625 5.738281 -11.421875 4.90625 -10.953125 C 4.082031 -10.492188 3.4375 -9.863281 2.96875 -9.0625 C 2.507812 -8.257812 2.28125 -7.363281 2.28125 -6.375 C 2.28125 -5.375 2.507812 -4.472656 2.96875 -3.671875 C 3.4375 -2.867188 4.082031 -2.238281 4.90625 -1.78125 C 5.738281 -1.320312 6.65625 -1.09375 7.65625 -1.09375 C 9.1875 -1.09375 10.445312 -1.601562 11.4375 -2.625 L 12.28125 -1.765625 C 11.726562 -1.160156 11.046875 -0.695312 10.234375 -0.375 C 9.429688 -0.0507812 8.554688 0.109375 7.609375 0.109375 Z M 7.609375 0.109375 "/></g></g></g><g fill="#000000" fill-opacity="1"><g transform="translate(102.167002, 18.262169)"><g><path d="M 4.546875 -11.578125 L 0.078125 -11.578125 L 0.078125 -12.734375 L 10.375 -12.734375 L 10.375 -11.578125 L 5.890625 -11.578125 L 5.890625 0 L 4.546875 0 Z M 4.546875 -11.578125 "/></g></g></g></g></g><g transform="matrix(1, 0, 0, 1, 268, 679)"><g clip-path="url(#b53277525e)"><g fill="#000000" fill-opacity="1"><g transform="translate(6.401107, 22.348605)"><g><path d="M 25.765625 -15.8125 L 20.59375 0 L 16.65625 0 L 13.1875 -10.703125 L 9.59375 0 L 5.6875 0 L 0.5 -15.8125 L 4.296875 -15.8125 L 7.859375 -4.703125 L 11.578125 -15.8125 L 14.96875 -15.8125 L 18.578125 -4.609375 L 22.265625 -15.8125 Z M 25.765625 -15.8125 "/></g></g></g><g fill="#000000" fill-opacity="1"><g transform="translate(37.534959, 22.348605)"><g><path d="M 14.109375 -2.9375 L 14.109375 0 L 1.875 0 L 1.875 -15.8125 L 13.8125 -15.8125 L 13.8125 -12.875 L 5.515625 -12.875 L 5.515625 -9.4375 L 12.84375 -9.4375 L 12.84375 -6.59375 L 5.515625 -6.59375 L 5.515625 -2.9375 Z M 14.109375 -2.9375 "/></g></g></g><g fill="#000000" fill-opacity="1"><g transform="translate(57.561424, 22.348605)"><g><path d="M 13.484375 -8.21875 C 14.378906 -7.9375 15.082031 -7.457031 15.59375 -6.78125 C 16.113281 -6.113281 16.375 -5.289062 16.375 -4.3125 C 16.375 -2.925781 15.832031 -1.859375 14.75 -1.109375 C 13.675781 -0.367188 12.109375 0 10.046875 0 L 1.875 0 L 1.875 -15.8125 L 9.59375 -15.8125 C 11.519531 -15.8125 13 -15.441406 14.03125 -14.703125 C 15.0625 -13.960938 15.578125 -12.960938 15.578125 -11.703125 C 15.578125 -10.929688 15.390625 -10.242188 15.015625 -9.640625 C 14.648438 -9.035156 14.140625 -8.5625 13.484375 -8.21875 Z M 5.515625 -13.046875 L 5.515625 -9.328125 L 9.140625 -9.328125 C 10.046875 -9.328125 10.734375 -9.484375 11.203125 -9.796875 C 11.671875 -10.109375 11.90625 -10.578125 11.90625 -11.203125 C 11.90625 -11.816406 11.671875 -12.273438 11.203125 -12.578125 C 10.734375 -12.890625 10.046875 -13.046875 9.140625 -13.046875 Z M 9.78125 -2.75 C 10.738281 -2.75 11.460938 -2.90625 11.953125 -3.21875 C 12.441406 -3.539062 12.6875 -4.035156 12.6875 -4.703125 C 12.6875 -6.003906 11.71875 -6.65625 9.78125 -6.65625 L 5.515625 -6.65625 L 5.515625 -2.75 Z M 9.78125 -2.75 "/></g></g></g><g fill="#000000" fill-opacity="1"><g transform="translate(79.710037, 22.348605)"><g><path d="M 7.0625 0.265625 C 5.8125 0.265625 4.601562 0.0976562 3.4375 -0.234375 C 2.269531 -0.578125 1.332031 -1.019531 0.625 -1.5625 L 1.875 -4.3125 C 2.550781 -3.8125 3.351562 -3.410156 4.28125 -3.109375 C 5.21875 -2.816406 6.15625 -2.671875 7.09375 -2.671875 C 8.125 -2.671875 8.890625 -2.820312 9.390625 -3.125 C 9.890625 -3.4375 10.140625 -3.847656 10.140625 -4.359375 C 10.140625 -4.734375 9.988281 -5.046875 9.6875 -5.296875 C 9.394531 -5.546875 9.019531 -5.742188 8.5625 -5.890625 C 8.101562 -6.046875 7.484375 -6.210938 6.703125 -6.390625 C 5.503906 -6.671875 4.519531 -6.953125 3.75 -7.234375 C 2.976562 -7.523438 2.316406 -7.988281 1.765625 -8.625 C 1.222656 -9.257812 0.953125 -10.101562 0.953125 -11.15625 C 0.953125 -12.070312 1.195312 -12.898438 1.6875 -13.640625 C 2.1875 -14.390625 2.9375 -14.984375 3.9375 -15.421875 C 4.9375 -15.859375 6.160156 -16.078125 7.609375 -16.078125 C 8.617188 -16.078125 9.601562 -15.957031 10.5625 -15.71875 C 11.53125 -15.476562 12.375 -15.128906 13.09375 -14.671875 L 11.96875 -11.90625 C 10.507812 -12.726562 9.050781 -13.140625 7.59375 -13.140625 C 6.5625 -13.140625 5.800781 -12.972656 5.3125 -12.640625 C 4.820312 -12.304688 4.578125 -11.867188 4.578125 -11.328125 C 4.578125 -10.785156 4.859375 -10.382812 5.421875 -10.125 C 5.992188 -9.863281 6.859375 -9.601562 8.015625 -9.34375 C 9.222656 -9.0625 10.207031 -8.773438 10.96875 -8.484375 C 11.738281 -8.203125 12.394531 -7.75 12.9375 -7.125 C 13.488281 -6.507812 13.765625 -5.675781 13.765625 -4.625 C 13.765625 -3.726562 13.515625 -2.90625 13.015625 -2.15625 C 12.515625 -1.40625 11.757812 -0.8125 10.75 -0.375 C 9.738281 0.0507812 8.507812 0.265625 7.0625 0.265625 Z M 7.0625 0.265625 "/></g></g></g><g fill="#000000" fill-opacity="1"><g transform="translate(98.991497, 22.348605)"><g><path d="M 1.875 -15.8125 L 5.53125 -15.8125 L 5.53125 0 L 1.875 0 Z M 1.875 -15.8125 "/></g></g></g><g fill="#000000" fill-opacity="1"><g transform="translate(111.274401, 22.348605)"><g><path d="M 5.140625 -12.828125 L 0.09375 -12.828125 L 0.09375 -15.8125 L 13.859375 -15.8125 L 13.859375 -12.828125 L 8.8125 -12.828125 L 8.8125 0 L 5.140625 0 Z M 5.140625 -12.828125 "/></g></g></g><g fill="#000000" fill-opacity="1"><g transform="translate(130.104338, 22.348605)"><g><path d="M 14.109375 -2.9375 L 14.109375 0 L 1.875 0 L 1.875 -15.8125 L 13.8125 -15.8125 L 13.8125 -12.875 L 5.515625 -12.875 L 5.515625 -9.4375 L 12.84375 -9.4375 L 12.84375 -6.59375 L 5.515625 -6.59375 L 5.515625 -2.9375 Z M 14.109375 -2.9375 "/></g></g></g><g fill="#000000" fill-opacity="1"><g transform="translate(150.130804, 22.348605)"><g/></g></g><g fill="#000000" fill-opacity="1"><g transform="translate(161.397792, 22.348605)"><g><path d="M 1.875 -15.8125 L 9.046875 -15.8125 C 10.765625 -15.8125 12.28125 -15.484375 13.59375 -14.828125 C 14.914062 -14.171875 15.941406 -13.242188 16.671875 -12.046875 C 17.398438 -10.859375 17.765625 -9.476562 17.765625 -7.90625 C 17.765625 -6.320312 17.398438 -4.9375 16.671875 -3.75 C 15.941406 -2.5625 14.914062 -1.640625 13.59375 -0.984375 C 12.28125 -0.328125 10.765625 0 9.046875 0 L 1.875 0 Z M 8.875 -3 C 10.457031 -3 11.71875 -3.4375 12.65625 -4.3125 C 13.59375 -5.195312 14.0625 -6.394531 14.0625 -7.90625 C 14.0625 -9.40625 13.59375 -10.59375 12.65625 -11.46875 C 11.71875 -12.351562 10.457031 -12.796875 8.875 -12.796875 L 5.53125 -12.796875 L 5.53125 -3 Z M 8.875 -3 "/></g></g></g><g fill="#000000" fill-opacity="1"><g transform="translate(184.923527, 22.348605)"><g><path d="M 14.109375 -2.9375 L 14.109375 0 L 1.875 0 L 1.875 -15.8125 L 13.8125 -15.8125 L 13.8125 -12.875 L 5.515625 -12.875 L 5.515625 -9.4375 L 12.84375 -9.4375 L 12.84375 -6.59375 L 5.515625 -6.59375 L 5.515625 -2.9375 Z M 14.109375 -2.9375 "/></g></g></g><g fill="#000000" fill-opacity="1"><g transform="translate(204.949992, 22.348605)"><g><path d="M 7.0625 0.265625 C 5.8125 0.265625 4.601562 0.0976562 3.4375 -0.234375 C 2.269531 -0.578125 1.332031 -1.019531 0.625 -1.5625 L 1.875 -4.3125 C 2.550781 -3.8125 3.351562 -3.410156 4.28125 -3.109375 C 5.21875 -2.816406 6.15625 -2.671875 7.09375 -2.671875 C 8.125 -2.671875 8.890625 -2.820312 9.390625 -3.125 C 9.890625 -3.4375 10.140625 -3.847656 10.140625 -4.359375 C 10.140625 -4.734375 9.988281 -5.046875 9.6875 -5.296875 C 9.394531 -5.546875 9.019531 -5.742188 8.5625 -5.890625 C 8.101562 -6.046875 7.484375 -6.210938 6.703125 -6.390625 C 5.503906 -6.671875 4.519531 -6.953125 3.75 -7.234375 C 2.976562 -7.523438 2.316406 -7.988281 1.765625 -8.625 C 1.222656 -9.257812 0.953125 -10.101562 0.953125 -11.15625 C 0.953125 -12.070312 1.195312 -12.898438 1.6875 -13.640625 C 2.1875 -14.390625 2.9375 -14.984375 3.9375 -15.421875 C 4.9375 -15.859375 6.160156 -16.078125 7.609375 -16.078125 C 8.617188 -16.078125 9.601562 -15.957031 10.5625 -15.71875 C 11.53125 -15.476562 12.375 -15.128906 13.09375 -14.671875 L 11.96875 -11.90625 C 10.507812 -12.726562 9.050781 -13.140625 7.59375 -13.140625 C 6.5625 -13.140625 5.800781 -12.972656 5.3125 -12.640625 C 4.820312 -12.304688 4.578125 -11.867188 4.578125 -11.328125 C 4.578125 -10.785156 4.859375 -10.382812 5.421875 -10.125 C 5.992188 -9.863281 6.859375 -9.601562 8.015625 -9.34375 C 9.222656 -9.0625 10.207031 -8.773438 10.96875 -8.484375 C 11.738281 -8.203125 12.394531 -7.75 12.9375 -7.125 C 13.488281 -6.507812 13.765625 -5.675781 13.765625 -4.625 C 13.765625 -3.726562 13.515625 -2.90625 13.015625 -2.15625 C 12.515625 -1.40625 11.757812 -0.8125 10.75 -0.375 C 9.738281 0.0507812 8.507812 0.265625 7.0625 0.265625 Z M 7.0625 0.265625 "/></g></g></g><g fill="#000000" fill-opacity="1"><g transform="translate(224.231452, 22.348605)"><g><path d="M 1.875 -15.8125 L 5.53125 -15.8125 L 5.53125 0 L 1.875 0 Z M 1.875 -15.8125 "/></g></g></g><g fill="#000000" fill-opacity="1"><g transform="translate(236.514356, 22.348605)"><g><path d="M 12.546875 -8.15625 L 15.890625 -8.15625 L 15.890625 -1.734375 C 15.035156 -1.085938 14.039062 -0.59375 12.90625 -0.25 C 11.78125 0.09375 10.644531 0.265625 9.5 0.265625 C 7.863281 0.265625 6.390625 -0.0820312 5.078125 -0.78125 C 3.765625 -1.476562 2.734375 -2.445312 1.984375 -3.6875 C 1.242188 -4.925781 0.875 -6.332031 0.875 -7.90625 C 0.875 -9.46875 1.242188 -10.867188 1.984375 -12.109375 C 2.734375 -13.347656 3.769531 -14.316406 5.09375 -15.015625 C 6.425781 -15.722656 7.921875 -16.078125 9.578125 -16.078125 C 10.960938 -16.078125 12.21875 -15.84375 13.34375 -15.375 C 14.46875 -14.90625 15.414062 -14.226562 16.1875 -13.34375 L 13.84375 -11.171875 C 12.707031 -12.359375 11.34375 -12.953125 9.75 -12.953125 C 8.738281 -12.953125 7.84375 -12.742188 7.0625 -12.328125 C 6.28125 -11.910156 5.671875 -11.316406 5.234375 -10.546875 C 4.796875 -9.773438 4.578125 -8.894531 4.578125 -7.90625 C 4.578125 -6.925781 4.796875 -6.050781 5.234375 -5.28125 C 5.671875 -4.507812 6.273438 -3.910156 7.046875 -3.484375 C 7.828125 -3.054688 8.710938 -2.84375 9.703125 -2.84375 C 10.765625 -2.84375 11.710938 -3.066406 12.546875 -3.515625 Z M 12.546875 -8.15625 "/></g></g></g><g fill="#000000" fill-opacity="1"><g transform="translate(258.798414, 22.348605)"><g><path d="M 16.375 -15.8125 L 16.375 0 L 13.359375 0 L 5.484375 -9.59375 L 5.484375 0 L 1.875 0 L 1.875 -15.8125 L 4.90625 -15.8125 L 12.75 -6.203125 L 12.75 -15.8125 Z M 16.375 -15.8125 "/></g></g></g><g fill="#000000" fill-opacity="1"><g transform="translate(281.917793, 22.348605)"><g/></g></g><g fill="#000000" fill-opacity="1"><g transform="translate(293.184781, 22.348605)"><g><path d="M 14.015625 0.265625 L 12.125 -1.484375 C 10.613281 -0.316406 8.851562 0.265625 6.84375 0.265625 C 5.695312 0.265625 4.664062 0.0820312 3.75 -0.28125 C 2.832031 -0.644531 2.113281 -1.160156 1.59375 -1.828125 C 1.070312 -2.492188 0.8125 -3.238281 0.8125 -4.0625 C 0.8125 -5.039062 1.085938 -5.898438 1.640625 -6.640625 C 2.191406 -7.390625 3.078125 -8.101562 4.296875 -8.78125 C 3.722656 -9.363281 3.304688 -9.921875 3.046875 -10.453125 C 2.796875 -10.992188 2.671875 -11.550781 2.671875 -12.125 C 2.671875 -12.894531 2.875 -13.570312 3.28125 -14.15625 C 3.6875 -14.738281 4.257812 -15.191406 5 -15.515625 C 5.75 -15.847656 6.613281 -16.015625 7.59375 -16.015625 C 8.957031 -16.015625 10.050781 -15.6875 10.875 -15.03125 C 11.707031 -14.375 12.125 -13.488281 12.125 -12.375 C 12.125 -11.5625 11.878906 -10.835938 11.390625 -10.203125 C 10.898438 -9.566406 10.113281 -8.957031 9.03125 -8.375 L 11.921875 -5.6875 C 12.265625 -6.414062 12.53125 -7.238281 12.71875 -8.15625 L 15.53125 -7.265625 C 15.226562 -5.867188 14.75 -4.675781 14.09375 -3.6875 L 15.9375 -1.96875 Z M 7.59375 -13.609375 C 7.0625 -13.609375 6.640625 -13.472656 6.328125 -13.203125 C 6.023438 -12.929688 5.875 -12.585938 5.875 -12.171875 C 5.875 -11.859375 5.953125 -11.5625 6.109375 -11.28125 C 6.273438 -11 6.601562 -10.625 7.09375 -10.15625 C 7.851562 -10.5625 8.382812 -10.925781 8.6875 -11.25 C 8.988281 -11.570312 9.140625 -11.925781 9.140625 -12.3125 C 9.140625 -12.695312 9.003906 -13.007812 8.734375 -13.25 C 8.460938 -13.488281 8.082031 -13.609375 7.59375 -13.609375 Z M 7.09375 -2.484375 C 8.1875 -2.484375 9.171875 -2.789062 10.046875 -3.40625 L 6.234375 -6.984375 C 5.523438 -6.566406 5.019531 -6.160156 4.71875 -5.765625 C 4.414062 -5.378906 4.265625 -4.941406 4.265625 -4.453125 C 4.265625 -3.859375 4.519531 -3.378906 5.03125 -3.015625 C 5.539062 -2.660156 6.226562 -2.484375 7.09375 -2.484375 Z M 7.09375 -2.484375 "/></g></g></g><g fill="#000000" fill-opacity="1"><g transform="translate(0.964136, 53.458159)"><g><path d="M 1.875 -15.8125 L 9.046875 -15.8125 C 10.765625 -15.8125 12.28125 -15.484375 13.59375 -14.828125 C 14.914062 -14.171875 15.941406 -13.242188 16.671875 -12.046875 C 17.398438 -10.859375 17.765625 -9.476562 17.765625 -7.90625 C 17.765625 -6.320312 17.398438 -4.9375 16.671875 -3.75 C 15.941406 -2.5625 14.914062 -1.640625 13.59375 -0.984375 C 12.28125 -0.328125 10.765625 0 9.046875 0 L 1.875 0 Z M 8.875 -3 C 10.457031 -3 11.71875 -3.4375 12.65625 -4.3125 C 13.59375 -5.195312 14.0625 -6.394531 14.0625 -7.90625 C 14.0625 -9.40625 13.59375 -10.59375 12.65625 -11.46875 C 11.71875 -12.351562 10.457031 -12.796875 8.875 -12.796875 L 5.53125 -12.796875 L 5.53125 -3 Z M 8.875 -3 "/></g></g></g><g fill="#000000" fill-opacity="1"><g transform="translate(24.489871, 53.458159)"><g><path d="M 14.109375 -2.9375 L 14.109375 0 L 1.875 0 L 1.875 -15.8125 L 13.8125 -15.8125 L 13.8125 -12.875 L 5.515625 -12.875 L 5.515625 -9.4375 L 12.84375 -9.4375 L 12.84375 -6.59375 L 5.515625 -6.59375 L 5.515625 -2.9375 Z M 14.109375 -2.9375 "/></g></g></g><g fill="#000000" fill-opacity="1"><g transform="translate(44.516337, 53.458159)"><g><path d="M 17.0625 -15.8125 L 10.234375 0 L 6.609375 0 L -0.203125 -15.8125 L 3.75 -15.8125 L 8.5625 -4.515625 L 13.4375 -15.8125 Z M 17.0625 -15.8125 "/></g></g></g><g fill="#000000" fill-opacity="1"><g transform="translate(66.236002, 53.458159)"><g><path d="M 14.109375 -2.9375 L 14.109375 0 L 1.875 0 L 1.875 -15.8125 L 13.8125 -15.8125 L 13.8125 -12.875 L 5.515625 -12.875 L 5.515625 -9.4375 L 12.84375 -9.4375 L 12.84375 -6.59375 L 5.515625 -6.59375 L 5.515625 -2.9375 Z M 14.109375 -2.9375 "/></g></g></g><g fill="#000000" fill-opacity="1"><g transform="translate(86.262467, 53.458159)"><g><path d="M 1.875 -15.8125 L 5.53125 -15.8125 L 5.53125 -2.984375 L 13.453125 -2.984375 L 13.453125 0 L 1.875 0 Z M 1.875 -15.8125 "/></g></g></g><g fill="#000000" fill-opacity="1"><g transform="translate(104.776347, 53.458159)"><g><path d="M 9.53125 0.265625 C 7.882812 0.265625 6.398438 -0.0820312 5.078125 -0.78125 C 3.765625 -1.488281 2.734375 -2.460938 1.984375 -3.703125 C 1.242188 -4.953125 0.875 -6.351562 0.875 -7.90625 C 0.875 -9.457031 1.242188 -10.851562 1.984375 -12.09375 C 2.734375 -13.332031 3.765625 -14.304688 5.078125 -15.015625 C 6.398438 -15.722656 7.882812 -16.078125 9.53125 -16.078125 C 11.164062 -16.078125 12.640625 -15.722656 13.953125 -15.015625 C 15.265625 -14.304688 16.296875 -13.332031 17.046875 -12.09375 C 17.796875 -10.851562 18.171875 -9.457031 18.171875 -7.90625 C 18.171875 -6.351562 17.796875 -4.953125 17.046875 -3.703125 C 16.296875 -2.460938 15.265625 -1.488281 13.953125 -0.78125 C 12.640625 -0.0820312 11.164062 0.265625 9.53125 0.265625 Z M 9.53125 -2.84375 C 10.457031 -2.84375 11.296875 -3.054688 12.046875 -3.484375 C 12.804688 -3.910156 13.398438 -4.507812 13.828125 -5.28125 C 14.253906 -6.050781 14.46875 -6.925781 14.46875 -7.90625 C 14.46875 -8.882812 14.253906 -9.753906 13.828125 -10.515625 C 13.398438 -11.285156 12.804688 -11.882812 12.046875 -12.3125 C 11.296875 -12.738281 10.457031 -12.953125 9.53125 -12.953125 C 8.59375 -12.953125 7.75 -12.738281 7 -12.3125 C 6.25 -11.882812 5.65625 -11.285156 5.21875 -10.515625 C 4.789062 -9.753906 4.578125 -8.882812 4.578125 -7.90625 C 4.578125 -6.925781 4.789062 -6.050781 5.21875 -5.28125 C 5.65625 -4.507812 6.25 -3.910156 7 -3.484375 C 7.75 -3.054688 8.59375 -2.84375 9.53125 -2.84375 Z M 9.53125 -2.84375 "/></g></g></g><g fill="#000000" fill-opacity="1"><g transform="translate(128.708455, 53.458159)"><g><path d="M 8.71875 -15.8125 C 10.113281 -15.8125 11.328125 -15.578125 12.359375 -15.109375 C 13.390625 -14.640625 14.179688 -13.972656 14.734375 -13.109375 C 15.296875 -12.253906 15.578125 -11.238281 15.578125 -10.0625 C 15.578125 -8.90625 15.296875 -7.894531 14.734375 -7.03125 C 14.179688 -6.164062 13.390625 -5.503906 12.359375 -5.046875 C 11.328125 -4.585938 10.113281 -4.359375 8.71875 -4.359375 L 5.53125 -4.359375 L 5.53125 0 L 1.875 0 L 1.875 -15.8125 Z M 8.515625 -7.34375 C 9.609375 -7.34375 10.441406 -7.578125 11.015625 -8.046875 C 11.585938 -8.523438 11.875 -9.195312 11.875 -10.0625 C 11.875 -10.957031 11.585938 -11.640625 11.015625 -12.109375 C 10.441406 -12.585938 9.609375 -12.828125 8.515625 -12.828125 L 5.53125 -12.828125 L 5.53125 -7.34375 Z M 8.515625 -7.34375 "/></g></g></g><g fill="#000000" fill-opacity="1"><g transform="translate(150.112061, 53.458159)"><g><path d="M 16.25 0 L 16.234375 -9.484375 L 11.578125 -1.671875 L 9.9375 -1.671875 L 5.3125 -9.28125 L 5.3125 0 L 1.875 0 L 1.875 -15.8125 L 4.90625 -15.8125 L 10.8125 -5.984375 L 16.640625 -15.8125 L 19.640625 -15.8125 L 19.6875 0 Z M 16.25 0 "/></g></g></g><g fill="#000000" fill-opacity="1"><g transform="translate(176.550114, 53.458159)"><g><path d="M 14.109375 -2.9375 L 14.109375 0 L 1.875 0 L 1.875 -15.8125 L 13.8125 -15.8125 L 13.8125 -12.875 L 5.515625 -12.875 L 5.515625 -9.4375 L 12.84375 -9.4375 L 12.84375 -6.59375 L 5.515625 -6.59375 L 5.515625 -2.9375 Z M 14.109375 -2.9375 "/></g></g></g><g fill="#000000" fill-opacity="1"><g transform="translate(196.57658, 53.458159)"><g><path d="M 16.375 -15.8125 L 16.375 0 L 13.359375 0 L 5.484375 -9.59375 L 5.484375 0 L 1.875 0 L 1.875 -15.8125 L 4.90625 -15.8125 L 12.75 -6.203125 L 12.75 -15.8125 Z M 16.375 -15.8125 "/></g></g></g><g fill="#000000" fill-opacity="1"><g transform="translate(219.695959, 53.458159)"><g><path d="M 5.140625 -12.828125 L 0.09375 -12.828125 L 0.09375 -15.8125 L 13.859375 -15.8125 L 13.859375 -12.828125 L 8.8125 -12.828125 L 8.8125 0 L 5.140625 0 Z M 5.140625 -12.828125 "/></g></g></g><g fill="#000000" fill-opacity="1"><g transform="translate(238.525897, 53.458159)"><g/></g></g><g fill="#000000" fill-opacity="1"><g transform="translate(249.792885, 53.458159)"><g><path d="M 5.53125 -12.875 L 5.53125 -8.6875 L 12.84375 -8.6875 L 12.84375 -5.75 L 5.53125 -5.75 L 5.53125 0 L 1.875 0 L 1.875 -15.8125 L 13.8125 -15.8125 L 13.8125 -12.875 Z M 5.53125 -12.875 "/></g></g></g><g fill="#000000" fill-opacity="1"><g transform="translate(269.096919, 53.458159)"><g><path d="M 9.53125 0.265625 C 7.882812 0.265625 6.398438 -0.0820312 5.078125 -0.78125 C 3.765625 -1.488281 2.734375 -2.460938 1.984375 -3.703125 C 1.242188 -4.953125 0.875 -6.351562 0.875 -7.90625 C 0.875 -9.457031 1.242188 -10.851562 1.984375 -12.09375 C 2.734375 -13.332031 3.765625 -14.304688 5.078125 -15.015625 C 6.398438 -15.722656 7.882812 -16.078125 9.53125 -16.078125 C 11.164062 -16.078125 12.640625 -15.722656 13.953125 -15.015625 C 15.265625 -14.304688 16.296875 -13.332031 17.046875 -12.09375 C 17.796875 -10.851562 18.171875 -9.457031 18.171875 -7.90625 C 18.171875 -6.351562 17.796875 -4.953125 17.046875 -3.703125 C 16.296875 -2.460938 15.265625 -1.488281 13.953125 -0.78125 C 12.640625 -0.0820312 11.164062 0.265625 9.53125 0.265625 Z M 9.53125 -2.84375 C 10.457031 -2.84375 11.296875 -3.054688 12.046875 -3.484375 C 12.804688 -3.910156 13.398438 -4.507812 13.828125 -5.28125 C 14.253906 -6.050781 14.46875 -6.925781 14.46875 -7.90625 C 14.46875 -8.882812 14.253906 -9.753906 13.828125 -10.515625 C 13.398438 -11.285156 12.804688 -11.882812 12.046875 -12.3125 C 11.296875 -12.738281 10.457031 -12.953125 9.53125 -12.953125 C 8.59375 -12.953125 7.75 -12.738281 7 -12.3125 C 6.25 -11.882812 5.65625 -11.285156 5.21875 -10.515625 C 4.789062 -9.753906 4.578125 -8.882812 4.578125 -7.90625 C 4.578125 -6.925781 4.789062 -6.050781 5.21875 -5.28125 C 5.65625 -4.507812 6.25 -3.910156 7 -3.484375 C 7.75 -3.054688 8.59375 -2.84375 9.53125 -2.84375 Z M 9.53125 -2.84375 "/></g></g></g><g fill="#000000" fill-opacity="1"><g transform="translate(293.029028, 53.458159)"><g><path d="M 11.9375 0 L 8.890625 -4.40625 L 5.53125 -4.40625 L 5.53125 0 L 1.875 0 L 1.875 -15.8125 L 8.71875 -15.8125 C 10.113281 -15.8125 11.328125 -15.578125 12.359375 -15.109375 C 13.390625 -14.640625 14.179688 -13.972656 14.734375 -13.109375 C 15.296875 -12.253906 15.578125 -11.238281 15.578125 -10.0625 C 15.578125 -8.894531 15.296875 -7.882812 14.734375 -7.03125 C 14.171875 -6.175781 13.367188 -5.523438 12.328125 -5.078125 L 15.875 0 Z M 11.875 -10.0625 C 11.875 -10.957031 11.585938 -11.640625 11.015625 -12.109375 C 10.441406 -12.585938 9.609375 -12.828125 8.515625 -12.828125 L 5.53125 -12.828125 L 5.53125 -7.3125 L 8.515625 -7.3125 C 9.609375 -7.3125 10.441406 -7.550781 11.015625 -8.03125 C 11.585938 -8.519531 11.875 -9.195312 11.875 -10.0625 Z M 11.875 -10.0625 "/></g></g></g><g fill="#000000" fill-opacity="1"><g transform="translate(9.515663, 84.567713)"><g><path d="M 1.875 -15.8125 L 5.53125 -15.8125 L 5.53125 0 L 1.875 0 Z M 1.875 -15.8125 "/></g></g></g><g fill="#000000" fill-opacity="1"><g transform="translate(21.798567, 84.567713)"><g><path d="M 16.375 -15.8125 L 16.375 0 L 13.359375 0 L 5.484375 -9.59375 L 5.484375 0 L 1.875 0 L 1.875 -15.8125 L 4.90625 -15.8125 L 12.75 -6.203125 L 12.75 -15.8125 Z M 16.375 -15.8125 "/></g></g></g><g fill="#000000" fill-opacity="1"><g transform="translate(44.917946, 84.567713)"><g><path d="M 5.53125 -12.875 L 5.53125 -8.6875 L 12.84375 -8.6875 L 12.84375 -5.75 L 5.53125 -5.75 L 5.53125 0 L 1.875 0 L 1.875 -15.8125 L 13.8125 -15.8125 L 13.8125 -12.875 Z M 5.53125 -12.875 "/></g></g></g><g fill="#000000" fill-opacity="1"><g transform="translate(64.221981, 84.567713)"><g><path d="M 1.875 -15.8125 L 5.53125 -15.8125 L 5.53125 0 L 1.875 0 Z M 1.875 -15.8125 "/></g></g></g><g fill="#000000" fill-opacity="1"><g transform="translate(76.504884, 84.567713)"><g><path d="M 16.375 -15.8125 L 16.375 0 L 13.359375 0 L 5.484375 -9.59375 L 5.484375 0 L 1.875 0 L 1.875 -15.8125 L 4.90625 -15.8125 L 12.75 -6.203125 L 12.75 -15.8125 Z M 16.375 -15.8125 "/></g></g></g><g fill="#000000" fill-opacity="1"><g transform="translate(99.624264, 84.567713)"><g><path d="M 1.875 -15.8125 L 5.53125 -15.8125 L 5.53125 0 L 1.875 0 Z M 1.875 -15.8125 "/></g></g></g><g fill="#000000" fill-opacity="1"><g transform="translate(111.907168, 84.567713)"><g><path d="M 5.140625 -12.828125 L 0.09375 -12.828125 L 0.09375 -15.8125 L 13.859375 -15.8125 L 13.859375 -12.828125 L 8.8125 -12.828125 L 8.8125 0 L 5.140625 0 Z M 5.140625 -12.828125 "/></g></g></g><g fill="#000000" fill-opacity="1"><g transform="translate(130.737106, 84.567713)"><g><path d="M 14.109375 -2.9375 L 14.109375 0 L 1.875 0 L 1.875 -15.8125 L 13.8125 -15.8125 L 13.8125 -12.875 L 5.515625 -12.875 L 5.515625 -9.4375 L 12.84375 -9.4375 L 12.84375 -6.59375 L 5.515625 -6.59375 L 5.515625 -2.9375 Z M 14.109375 -2.9375 "/></g></g></g><g fill="#000000" fill-opacity="1"><g transform="translate(150.763571, 84.567713)"><g/></g></g><g fill="#000000" fill-opacity="1"><g transform="translate(162.030559, 84.567713)"><g><path d="M 13.484375 -8.21875 C 14.378906 -7.9375 15.082031 -7.457031 15.59375 -6.78125 C 16.113281 -6.113281 16.375 -5.289062 16.375 -4.3125 C 16.375 -2.925781 15.832031 -1.859375 14.75 -1.109375 C 13.675781 -0.367188 12.109375 0 10.046875 0 L 1.875 0 L 1.875 -15.8125 L 9.59375 -15.8125 C 11.519531 -15.8125 13 -15.441406 14.03125 -14.703125 C 15.0625 -13.960938 15.578125 -12.960938 15.578125 -11.703125 C 15.578125 -10.929688 15.390625 -10.242188 15.015625 -9.640625 C 14.648438 -9.035156 14.140625 -8.5625 13.484375 -8.21875 Z M 5.515625 -13.046875 L 5.515625 -9.328125 L 9.140625 -9.328125 C 10.046875 -9.328125 10.734375 -9.484375 11.203125 -9.796875 C 11.671875 -10.109375 11.90625 -10.578125 11.90625 -11.203125 C 11.90625 -11.816406 11.671875 -12.273438 11.203125 -12.578125 C 10.734375 -12.890625 10.046875 -13.046875 9.140625 -13.046875 Z M 9.78125 -2.75 C 10.738281 -2.75 11.460938 -2.90625 11.953125 -3.21875 C 12.441406 -3.539062 12.6875 -4.035156 12.6875 -4.703125 C 12.6875 -6.003906 11.71875 -6.65625 9.78125 -6.65625 L 5.515625 -6.65625 L 5.515625 -2.75 Z M 9.78125 -2.75 "/></g></g></g><g fill="#000000" fill-opacity="1"><g transform="translate(184.179172, 84.567713)"><g><path d="M 11.9375 0 L 8.890625 -4.40625 L 5.53125 -4.40625 L 5.53125 0 L 1.875 0 L 1.875 -15.8125 L 8.71875 -15.8125 C 10.113281 -15.8125 11.328125 -15.578125 12.359375 -15.109375 C 13.390625 -14.640625 14.179688 -13.972656 14.734375 -13.109375 C 15.296875 -12.253906 15.578125 -11.238281 15.578125 -10.0625 C 15.578125 -8.894531 15.296875 -7.882812 14.734375 -7.03125 C 14.171875 -6.175781 13.367188 -5.523438 12.328125 -5.078125 L 15.875 0 Z M 11.875 -10.0625 C 11.875 -10.957031 11.585938 -11.640625 11.015625 -12.109375 C 10.441406 -12.585938 9.609375 -12.828125 8.515625 -12.828125 L 5.53125 -12.828125 L 5.53125 -7.3125 L 8.515625 -7.3125 C 9.609375 -7.3125 10.441406 -7.550781 11.015625 -8.03125 C 11.585938 -8.519531 11.875 -9.195312 11.875 -10.0625 Z M 11.875 -10.0625 "/></g></g></g><g fill="#000000" fill-opacity="1"><g transform="translate(205.650501, 84.567713)"><g><path d="M 14.109375 -2.9375 L 14.109375 0 L 1.875 0 L 1.875 -15.8125 L 13.8125 -15.8125 L 13.8125 -12.875 L 5.515625 -12.875 L 5.515625 -9.4375 L 12.84375 -9.4375 L 12.84375 -6.59375 L 5.515625 -6.59375 L 5.515625 -2.9375 Z M 14.109375 -2.9375 "/></g></g></g><g fill="#000000" fill-opacity="1"><g transform="translate(225.676966, 84.567713)"><g><path d="M 25.765625 -15.8125 L 20.59375 0 L 16.65625 0 L 13.1875 -10.703125 L 9.59375 0 L 5.6875 0 L 0.5 -15.8125 L 4.296875 -15.8125 L 7.859375 -4.703125 L 11.578125 -15.8125 L 14.96875 -15.8125 L 18.578125 -4.609375 L 22.265625 -15.8125 Z M 25.765625 -15.8125 "/></g></g></g><g fill="#000000" fill-opacity="1"><g transform="translate(256.810818, 84.567713)"><g><path d="M 1.875 -15.8125 L 5.53125 -15.8125 L 5.53125 0 L 1.875 0 Z M 1.875 -15.8125 "/></g></g></g><g fill="#000000" fill-opacity="1"><g transform="translate(269.093722, 84.567713)"><g><path d="M 16.375 -15.8125 L 16.375 0 L 13.359375 0 L 5.484375 -9.59375 L 5.484375 0 L 1.875 0 L 1.875 -15.8125 L 4.90625 -15.8125 L 12.75 -6.203125 L 12.75 -15.8125 Z M 16.375 -15.8125 "/></g></g></g><g fill="#000000" fill-opacity="1"><g transform="translate(292.213101, 84.567713)"><g><path d="M 12.546875 -8.15625 L 15.890625 -8.15625 L 15.890625 -1.734375 C 15.035156 -1.085938 14.039062 -0.59375 12.90625 -0.25 C 11.78125 0.09375 10.644531 0.265625 9.5 0.265625 C 7.863281 0.265625 6.390625 -0.0820312 5.078125 -0.78125 C 3.765625 -1.476562 2.734375 -2.445312 1.984375 -3.6875 C 1.242188 -4.925781 0.875 -6.332031 0.875 -7.90625 C 0.875 -9.46875 1.242188 -10.867188 1.984375 -12.109375 C 2.734375 -13.347656 3.769531 -14.316406 5.09375 -15.015625 C 6.425781 -15.722656 7.921875 -16.078125 9.578125 -16.078125 C 10.960938 -16.078125 12.21875 -15.84375 13.34375 -15.375 C 14.46875 -14.90625 15.414062 -14.226562 16.1875 -13.34375 L 13.84375 -11.171875 C 12.707031 -12.359375 11.34375 -12.953125 9.75 -12.953125 C 8.738281 -12.953125 7.84375 -12.742188 7.0625 -12.328125 C 6.28125 -11.910156 5.671875 -11.316406 5.234375 -10.546875 C 4.796875 -9.773438 4.578125 -8.894531 4.578125 -7.90625 C 4.578125 -6.925781 4.796875 -6.050781 5.234375 -5.28125 C 5.671875 -4.507812 6.273438 -3.910156 7.046875 -3.484375 C 7.828125 -3.054688 8.710938 -2.84375 9.703125 -2.84375 C 10.765625 -2.84375 11.710938 -3.066406 12.546875 -3.515625 Z M 12.546875 -8.15625 "/></g></g></g><g fill="#000000" fill-opacity="1"><g transform="translate(155.86379, 115.677267)"><g><path d="M 9.4375 0.265625 C 7.820312 0.265625 6.363281 -0.0820312 5.0625 -0.78125 C 3.757812 -1.476562 2.734375 -2.445312 1.984375 -3.6875 C 1.242188 -4.925781 0.875 -6.332031 0.875 -7.90625 C 0.875 -9.46875 1.242188 -10.867188 1.984375 -12.109375 C 2.734375 -13.347656 3.757812 -14.316406 5.0625 -15.015625 C 6.363281 -15.722656 7.828125 -16.078125 9.453125 -16.078125 C 10.828125 -16.078125 12.066406 -15.832031 13.171875 -15.34375 C 14.273438 -14.863281 15.207031 -14.175781 15.96875 -13.28125 L 13.609375 -11.109375 C 12.546875 -12.335938 11.222656 -12.953125 9.640625 -12.953125 C 8.660156 -12.953125 7.785156 -12.738281 7.015625 -12.3125 C 6.253906 -11.882812 5.65625 -11.285156 5.21875 -10.515625 C 4.789062 -9.753906 4.578125 -8.882812 4.578125 -7.90625 C 4.578125 -6.925781 4.789062 -6.050781 5.21875 -5.28125 C 5.65625 -4.507812 6.253906 -3.910156 7.015625 -3.484375 C 7.785156 -3.054688 8.660156 -2.84375 9.640625 -2.84375 C 11.222656 -2.84375 12.546875 -3.46875 13.609375 -4.71875 L 15.96875 -2.546875 C 15.207031 -1.628906 14.269531 -0.929688 13.15625 -0.453125 C 12.050781 0.0234375 10.8125 0.265625 9.4375 0.265625 Z M 9.4375 0.265625 "/></g></g></g><g fill="#000000" fill-opacity="1"><g transform="translate(177.289971, 115.677267)"><g><path d="M 9.53125 0.265625 C 7.882812 0.265625 6.398438 -0.0820312 5.078125 -0.78125 C 3.765625 -1.488281 2.734375 -2.460938 1.984375 -3.703125 C 1.242188 -4.953125 0.875 -6.351562 0.875 -7.90625 C 0.875 -9.457031 1.242188 -10.851562 1.984375 -12.09375 C 2.734375 -13.332031 3.765625 -14.304688 5.078125 -15.015625 C 6.398438 -15.722656 7.882812 -16.078125 9.53125 -16.078125 C 11.164062 -16.078125 12.640625 -15.722656 13.953125 -15.015625 C 15.265625 -14.304688 16.296875 -13.332031 17.046875 -12.09375 C 17.796875 -10.851562 18.171875 -9.457031 18.171875 -7.90625 C 18.171875 -6.351562 17.796875 -4.953125 17.046875 -3.703125 C 16.296875 -2.460938 15.265625 -1.488281 13.953125 -0.78125 C 12.640625 -0.0820312 11.164062 0.265625 9.53125 0.265625 Z M 9.53125 -2.84375 C 10.457031 -2.84375 11.296875 -3.054688 12.046875 -3.484375 C 12.804688 -3.910156 13.398438 -4.507812 13.828125 -5.28125 C 14.253906 -6.050781 14.46875 -6.925781 14.46875 -7.90625 C 14.46875 -8.882812 14.253906 -9.753906 13.828125 -10.515625 C 13.398438 -11.285156 12.804688 -11.882812 12.046875 -12.3125 C 11.296875 -12.738281 10.457031 -12.953125 9.53125 -12.953125 C 8.59375 -12.953125 7.75 -12.738281 7 -12.3125 C 6.25 -11.882812 5.65625 -11.285156 5.21875 -10.515625 C 4.789062 -9.753906 4.578125 -8.882812 4.578125 -7.90625 C 4.578125 -6.925781 4.789062 -6.050781 5.21875 -5.28125 C 5.65625 -4.507812 6.25 -3.910156 7 -3.484375 C 7.75 -3.054688 8.59375 -2.84375 9.53125 -2.84375 Z M 9.53125 -2.84375 "/></g></g></g><g fill="#000000" fill-opacity="1"><g transform="translate(201.22208, 115.677267)"><g><path d="M 16.25 0 L 16.234375 -9.484375 L 11.578125 -1.671875 L 9.9375 -1.671875 L 5.3125 -9.28125 L 5.3125 0 L 1.875 0 L 1.875 -15.8125 L 4.90625 -15.8125 L 10.8125 -5.984375 L 16.640625 -15.8125 L 19.640625 -15.8125 L 19.6875 0 Z M 16.25 0 "/></g></g></g><g fill="#000000" fill-opacity="1"><g transform="translate(227.660133, 115.677267)"><g><path d="M 8.71875 -15.8125 C 10.113281 -15.8125 11.328125 -15.578125 12.359375 -15.109375 C 13.390625 -14.640625 14.179688 -13.972656 14.734375 -13.109375 C 15.296875 -12.253906 15.578125 -11.238281 15.578125 -10.0625 C 15.578125 -8.90625 15.296875 -7.894531 14.734375 -7.03125 C 14.179688 -6.164062 13.390625 -5.503906 12.359375 -5.046875 C 11.328125 -4.585938 10.113281 -4.359375 8.71875 -4.359375 L 5.53125 -4.359375 L 5.53125 0 L 1.875 0 L 1.875 -15.8125 Z M 8.515625 -7.34375 C 9.609375 -7.34375 10.441406 -7.578125 11.015625 -8.046875 C 11.585938 -8.523438 11.875 -9.195312 11.875 -10.0625 C 11.875 -10.957031 11.585938 -11.640625 11.015625 -12.109375 C 10.441406 -12.585938 9.609375 -12.828125 8.515625 -12.828125 L 5.53125 -12.828125 L 5.53125 -7.34375 Z M 8.515625 -7.34375 "/></g></g></g><g fill="#000000" fill-opacity="1"><g transform="translate(249.063739, 115.677267)"><g><path d="M 12.28125 -3.390625 L 4.9375 -3.390625 L 3.546875 0 L -0.203125 0 L 6.84375 -15.8125 L 10.453125 -15.8125 L 17.515625 0 L 13.6875 0 Z M 11.125 -6.15625 L 8.625 -12.21875 L 6.125 -6.15625 Z M 11.125 -6.15625 "/></g></g></g><g fill="#000000" fill-opacity="1"><g transform="translate(271.234926, 115.677267)"><g><path d="M 16.375 -15.8125 L 16.375 0 L 13.359375 0 L 5.484375 -9.59375 L 5.484375 0 L 1.875 0 L 1.875 -15.8125 L 4.90625 -15.8125 L 12.75 -6.203125 L 12.75 -15.8125 Z M 16.375 -15.8125 "/></g></g></g><g fill="#000000" fill-opacity="1"><g transform="translate(294.354305, 115.677267)"><g><path d="M 9.453125 -5.59375 L 9.453125 0 L 5.796875 0 L 5.796875 -5.640625 L -0.3125 -15.8125 L 3.5625 -15.8125 L 7.796875 -8.78125 L 12.015625 -15.8125 L 15.609375 -15.8125 Z M 9.453125 -5.59375 "/></g></g></g></g></g></svg>